<?xml version="1.0" encoding="UTF-8"?>
<!DOCTYPE svg PUBLIC "-//W3C//DTD SVG 1.1//EN" "http://www.w3.org/Graphics/SVG/1.1/DTD/svg11.dtd">
<svg version="1.1" xmlns="http://www.w3.org/2000/svg" xmlns:xlink="http://www.w3.org/1999/xlink" x="0" y="0" width="24" height="24" viewBox="0, 0, 24, 24">
  <g id="Background">
    <rect x="0" y="0" width="24" height="24" fill="#000000" fill-opacity="0"/>
  </g>
  <g id="Layer_1">
    <path d="M12,24 C5.373,24 0,18.627 0,12 C0,5.373 5.373,0 12,0 C18.627,0 24,5.373 24,12 C24,18.627 18.627,24 12,24 z M12,2 C6.477,2 2,6.477 2,12 C2,17.523 6.477,22 12,22 C17.523,22 22,17.523 22,12 C22,6.477 17.523,2 12,2 z M17.98,12.081 L17.98,12.108 C17.974,12.196 17.957,12.284 17.93,12.368 C17.91,12.403 17.89,12.432 17.87,12.468 C17.836,12.538 17.792,12.603 17.74,12.661 C17.706,12.692 17.669,12.72 17.63,12.744 L15.07,16.536 C14.718,17.003 14.081,17.15 13.56,16.884 C13.313,16.788 13.122,16.585 13.043,16.332 C12.963,16.08 13.002,15.804 13.15,15.584 L14.89,13.001 L7,13.001 C6.448,13.001 6,12.553 6,12.001 C6,11.449 6.448,11.001 7,11.001 L14.89,11.001 L13.15,8.419 C13.003,8.199 12.964,7.923 13.043,7.671 C13.123,7.418 13.313,7.215 13.56,7.119 C14.081,6.854 14.717,7.001 15.07,7.467 L17.61,11.229 C17.626,11.242 17.64,11.258 17.65,11.276 C17.736,11.349 17.81,11.435 17.87,11.531 L17.87,11.531 C17.936,11.645 17.973,11.773 17.98,11.905 L17.98,11.921 C17.988,11.93 17.991,11.942 17.99,11.954 C17.99,11.97 18,11.984 18,12 C18,12.016 17.99,12.031 17.99,12.046 C17.991,12.059 17.988,12.071 17.98,12.081 z" fill="#0D99DA" id="arrow-right"/>
  </g>
</svg>
