<?xml version="1.0" encoding="UTF-8"?>
<!DOCTYPE svg PUBLIC "-//W3C//DTD SVG 1.1//EN" "http://www.w3.org/Graphics/SVG/1.1/DTD/svg11.dtd">
<svg version="1.1" xmlns="http://www.w3.org/2000/svg" xmlns:xlink="http://www.w3.org/1999/xlink" x="0" y="0" width="24" height="24" viewBox="0, 0, 24, 24">
  <g id="Background">
    <rect x="0" y="0" width="24" height="24" fill="#000000" fill-opacity="0"/>
  </g>
  <g id="Layer_1">
    <path d="M12,0 C18.627,0 24,5.373 24,12 C24,18.627 18.627,24 12,24 C5.373,24 0,18.627 0,12 C0,5.373 5.373,0 12,0 z M12,22 C17.523,22 22,17.523 22,12 C22,6.477 17.523,2 12,2 C6.477,2 2,6.477 2,12 C2,17.523 6.477,22 12,22 z M6.02,11.919 L6.02,11.892 C6.026,11.804 6.043,11.716 6.07,11.632 C6.09,11.597 6.11,11.568 6.13,11.532 C6.164,11.462 6.208,11.397 6.26,11.339 C6.294,11.308 6.331,11.28 6.37,11.256 L8.93,7.464 C9.282,6.997 9.919,6.85 10.44,7.116 C10.687,7.212 10.878,7.415 10.957,7.668 C11.037,7.92 10.998,8.196 10.85,8.416 L9.11,10.999 L17,10.999 C17.552,10.999 18,11.447 18,11.999 C18,12.551 17.552,12.999 17,12.999 L9.11,12.999 L10.85,15.581 C10.997,15.801 11.036,16.077 10.957,16.329 C10.877,16.582 10.687,16.785 10.44,16.881 C9.919,17.146 9.283,16.999 8.93,16.533 L6.39,12.771 C6.374,12.758 6.36,12.742 6.35,12.724 C6.264,12.651 6.19,12.565 6.13,12.469 L6.13,12.469 C6.064,12.355 6.027,12.227 6.02,12.095 L6.02,12.079 C6.012,12.07 6.009,12.058 6.01,12.046 C6.01,12.03 6,12.016 6,12 C6,11.984 6.01,11.969 6.01,11.954 C6.009,11.941 6.012,11.929 6.02,11.919 z" fill="#0D99DA" id="arrow-right"/>
  </g>
</svg>
