<svg version="1.1" xmlns="http://www.w3.org/2000/svg" viewBox="0, 0, 612, 157">
    <path fill="#f0dc4f" d="M95.608,40.206 L95.608,123.276 L85.071,123.276 L85.071,108.998 Q78.352,117.168 69.992,121.291 Q61.631,125.414 51.706,125.414 Q34.069,125.414 21.585,112.625 Q9.102,99.836 9.102,81.512 Q9.102,63.569 21.7,50.818 Q34.298,38.068 52.011,38.068 Q62.242,38.068 70.526,42.42 Q78.811,46.772 85.071,55.476 L85.071,40.206 z M52.851,48.375 Q43.918,48.375 36.359,52.765 Q28.8,57.156 24.334,65.096 Q19.867,73.037 19.867,81.894 Q19.867,90.674 24.372,98.691 Q28.877,106.708 36.474,111.174 Q44.071,115.641 52.775,115.641 Q61.555,115.641 69.419,111.213 Q77.284,106.784 81.521,99.225 Q85.759,91.667 85.759,82.199 Q85.759,67.768 76.253,58.072 Q66.747,48.375 52.851,48.375 z"/>
    <path fill="#f0dc4f" d="M112.863,40.206 L173.868,40.206 L126.836,113.809 L172.341,113.809 L172.341,123.276 L108.435,123.276 L155.468,49.597 L112.863,49.597 z"/>
    <path fill="#f0dc4f" d="M205.402,40.206 L205.402,49.368 Q211.052,43.718 217.618,40.893 Q224.184,38.068 231.667,38.068 Q247.929,38.068 259.306,50.36 Q270.682,62.653 270.682,81.894 Q270.682,100.447 258.924,112.93 Q247.166,125.414 231.056,125.414 Q223.879,125.414 217.694,122.856 Q211.51,120.298 205.402,114.496 L205.402,153.664 L184.71,153.664 L184.71,40.206 z M227.315,57.308 Q217.465,57.308 210.975,64.027 Q204.485,70.746 204.485,81.588 Q204.485,92.659 210.975,99.493 Q217.465,106.326 227.315,106.326 Q236.858,106.326 243.387,99.378 Q249.915,92.43 249.915,81.664 Q249.915,70.975 243.501,64.142 Q237.088,57.308 227.315,57.308 z"/>
    <path fill="#f0dc4f" d="M296.107,6 Q301.605,6 305.537,9.97 Q309.469,13.941 309.469,19.591 Q309.469,25.164 305.575,29.096 Q301.681,33.028 296.26,33.028 Q290.686,33.028 286.754,29.02 Q282.822,25.012 282.822,19.285 Q282.822,13.788 286.716,9.894 Q290.61,6 296.107,6"/>
    <path fill="#f0dc4f" d="M285.647,123.276 L306.568,123.276 L306.568,40.206 L285.647,40.206"/>
    <path fill="#f0dc4f" d="M317.944,40.206 L342.147,40.206 L358.41,62.882 L374.902,40.206 L398.877,40.206 L370.474,79.527 L402.389,123.276 L378.185,123.276 L358.41,96.019 L338.864,123.276 L314.966,123.276 L346.423,79.527 z"/>
    <path fill="#f0dc4f" d="M496.225,87.773 L429.265,87.773 Q430.715,96.629 437.014,101.859 Q443.313,107.09 453.086,107.09 Q464.768,107.09 473.167,98.92 L490.728,107.166 Q484.161,116.481 474.999,120.947 Q465.837,125.414 453.239,125.414 Q433.693,125.414 421.4,113.083 Q409.108,100.752 409.108,82.199 Q409.108,63.187 421.362,50.628 Q433.617,38.068 452.094,38.068 Q471.716,38.068 484.009,50.628 Q496.301,63.187 496.301,83.802 z M475.305,71.357 Q473.243,64.409 467.173,60.057 Q461.103,55.705 453.086,55.705 Q444.382,55.705 437.816,60.591 Q433.693,63.645 430.181,71.357 z"/>
    <path fill="#f0dc4f" d="M510.884,8.138 L531.729,8.138 L531.729,123.276 L510.884,123.276 z"/>
    <path fill="#f0dc4f" d="M601.438,51.811 L588.534,64.714 Q580.67,56.927 574.256,56.927 Q570.744,56.927 568.759,58.415 Q566.774,59.904 566.774,62.118 Q566.774,63.798 568.034,65.211 Q569.294,66.623 574.256,69.066 L581.892,72.884 Q593.955,78.839 598.46,85.024 Q602.965,91.208 602.965,99.531 Q602.965,110.602 594.833,118.008 Q586.702,125.414 573.035,125.414 Q554.863,125.414 544.021,111.213 L556.848,97.24 Q560.513,101.516 565.438,104.15 Q570.362,106.784 574.18,106.784 Q578.303,106.784 580.823,104.799 Q583.342,102.814 583.342,100.218 Q583.342,95.408 574.256,90.827 L567.232,87.314 Q547.075,77.16 547.075,61.889 Q547.075,52.04 554.672,45.054 Q562.269,38.068 574.104,38.068 Q582.197,38.068 589.336,41.618 Q596.475,45.168 601.438,51.811 z"/>
    <path fill="#f0dc4f" d="M226.658,68.227 Q232.155,68.227 236.088,72.197 Q240.02,76.167 240.02,81.817 Q240.02,87.391 236.126,91.323 Q232.232,95.255 226.811,95.255 Q221.237,95.255 217.305,91.247 Q213.373,87.238 213.373,81.512 Q213.373,76.014 217.267,72.121 Q221.161,68.227 226.658,68.227"/>
</svg>
