<?xml version="1.0" encoding="UTF-8"?>
<!DOCTYPE svg PUBLIC "-//W3C//DTD SVG 1.1//EN" "http://www.w3.org/Graphics/SVG/1.1/DTD/svg11.dtd">
<svg version="1.1" xmlns="http://www.w3.org/2000/svg" xmlns:xlink="http://www.w3.org/1999/xlink" x="0" y="0" width="128" height="128" viewBox="0, 0, 128, 128">
  <g id="Background">
    <rect x="0" y="0" width="128" height="128" fill="#000000" fill-opacity="0"/>
  </g>
  <g id="Layer_1">
    <path d="M112.771,30.334 L68.674,4.729 C65.893,3.145 62.272,3.145 59.469,4.729 L14.901,30.334 C12.031,31.985 10,35.088 10,38.407 L10,89.549 C10,92.868 12.084,95.972 14.954,97.632 L26.729,104.32 C32.357,107.092 34.346,107.092 36.907,107.092 C45.24,107.092 50,102.053 50,93.264 L50,42.774 C50,42.061 49.629,41 48.929,41 L43.306,41 C42.594,41 41,42.061 41,42.773 L41,93.263 C41,97.159 37.476,101.036 30.89,97.743 L18.723,90.73 C18.299,90.5 18,90.037 18,89.549 L18,38.407 C18,37.925 18.555,37.441 18.982,37.194 L63.406,11.633 C63.821,11.398 64.431,11.398 64.845,11.633 L108.727,37.188 C109.147,37.441 108.999,37.91 108.999,38.407 L108.999,89.549 C108.999,90.037 109.182,90.512 108.767,90.747 L64.681,116.323 C64.303,116.55 63.834,116.55 63.42,116.323 L52.113,109.574 C51.772,109.376 51.367,109.305 51.04,109.488 C47.894,111.271 47.314,111.508 44.363,112.531 C43.637,112.784 42.566,113.223 44.773,114.46 L59.571,123.214 C60.988,124.034 62.598,124.46 64.218,124.46 C65.86,124.46 67.468,124.034 68.885,123.214 L112.77,97.632 C115.64,95.96 117,92.868 117,89.549 L117,38.407 C117,35.088 115.64,31.993 112.771,30.334 z M77.91,81.445 C66.184,81.445 63.601,78.21 62.74,72.379 C62.64,71.751 62.107,71 61.468,71 L55.737,71 C55.028,71 54.458,71.86 54.458,72.566 C54.458,80.032 58.517,89.078 77.911,89.078 C91.95,89.078 99.999,83.623 99.999,73.969 C99.999,64.397 93.532,61.885 79.917,60.083 C66.155,58.264 64.757,57.345 64.757,54.121 C64.757,51.463 65.941,47.918 76.131,47.918 C85.236,47.918 88.592,49.872 89.973,56.009 C90.091,56.586 90.618,57 91.213,57 L96.967,57 C97.321,57 97.659,56.857 97.907,56.604 C98.147,56.332 98.274,55.991 98.242,55.625 C97.351,45.057 90.33,40.132 76.13,40.132 C63.499,40.132 55.964,45.466 55.964,54.407 C55.964,64.105 63.461,66.785 75.586,67.984 C90.091,69.406 91.219,71.526 91.219,74.379 C91.219,79.334 87.241,81.445 77.91,81.445 z" fill="#325F74"/>
  </g>
</svg>
