<?xml version="1.0" encoding="UTF-8"?>
<!DOCTYPE svg PUBLIC "-//W3C//DTD SVG 1.1//EN" "http://www.w3.org/Graphics/SVG/1.1/DTD/svg11.dtd">
<svg version="1.1" xmlns="http://www.w3.org/2000/svg" xmlns:xlink="http://www.w3.org/1999/xlink" x="0" y="0" width="128" height="128" viewBox="0, 0, 128, 128">
  <g id="Background">
    <rect x="0" y="0" width="128" height="128" fill="#000000" fill-opacity="0"/>
  </g>
  <g id="Layer_1">
    <g>
      <path d="M73.3,47.5 C73.3,52.636 69.136,56.8 64,56.8 C58.864,56.8 54.7,52.636 54.7,47.5 C54.7,42.364 58.864,38.2 64,38.2 C69.136,38.2 73.3,42.364 73.3,47.5 z" fill="#325F74"/>
      <path d="M64,81.7 C71.3,88.8 78.5,93 84.3,93 C86.2,93 88,92.6 89.5,91.7 C94.7,88.7 96.6,81.2 94.8,70.5 C94.5,68.6 94.1,66.7 93.6,64.7 C95.6,64.1 97.4,63.5 99.2,62.9 C109.3,59 114.9,53.6 114.9,47.7 C114.9,41.7 109.3,36.3 99.2,32.5 C97.4,31.8 95.6,31.2 93.6,30.7 C94.1,28.7 94.5,26.8 94.8,24.9 C96.5,14 94.6,6.4 89.4,3.4 C87.9,2.5 86.1,2.1 84.2,2.1 C78.5,2.1 71.2,6.3 63.9,13.4 C56.7,6.3 49.5,2.1 43.7,2.1 C41.8,2.1 40,2.5 38.5,3.4 C33.3,6.4 31.4,13.9 33.2,24.6 C33.5,26.5 33.9,28.4 34.4,30.4 C32.4,31 30.6,31.6 28.8,32.2 C18.7,36.1 13.1,41.5 13.1,47.4 C13.1,53.4 18.7,58.8 28.8,62.6 C30.6,63.3 32.4,63.9 34.4,64.4 C33.9,66.4 33.5,68.3 33.2,70.2 C31.5,80.9 33.4,88.5 38.5,91.4 C40,92.3 41.8,92.7 43.7,92.7 C49.5,92.9 56.7,88.7 64,81.7 z M58.4,68.2 C60.2,68.3 62.1,68.3 64,68.3 C65.9,68.3 67.8,68.3 69.6,68.2 C67.8,70.6 65.9,72.8 64,74.9 C62.1,72.8 60.2,70.6 58.4,68.2 z M46,57.9 C47,59.6 47.9,61.2 49,62.8 C45.9,62.4 43,61.9 40.2,61.3 C41.1,58.6 42.1,55.8 43.3,53 C44.1,54.6 45,56.3 46,57.9 z M40.2,33.8 C43,33.2 45.9,32.7 49,32.3 C48,33.9 47,35.5 46,37.2 C45,38.9 44.1,40.5 43.3,42.2 C42,39.3 41,36.5 40.2,33.8 z M45.7,47.5 C47,44.8 48.4,42.1 50,39.4 C51.5,36.8 53.2,34.2 54.9,31.6 C57.9,31.4 60.9,31.3 64,31.3 C67.2,31.3 70.2,31.4 73.1,31.6 C74.9,34.2 76.5,36.8 78,39.4 C79.6,42.1 81,44.8 82.3,47.5 C81,50.2 79.6,52.9 78,55.6 C76.5,58.2 74.8,60.8 73.1,63.4 C70.1,63.6 67.1,63.7 64,63.7 C60.8,63.7 57.8,63.6 54.9,63.4 C53.1,60.8 51.5,58.2 50,55.6 C48.4,52.9 47,50.2 45.7,47.5 z M84.8,42.1 L82.1,37.1 C81.1,35.4 80.2,33.8 79.1,32.2 C82.2,32.6 85.1,33.1 87.9,33.7 C87,36.5 86,39.3 84.8,42.1 z M84.8,52.9 C86,55.7 87,58.5 87.9,61.2 C85.1,61.8 82.2,62.3 79.1,62.7 C80.1,61.1 81.1,59.5 82.1,57.8 C83,56.3 83.9,54.6 84.8,52.9 z M87.1,87.6 C86.3,88.1 85.3,88.3 84.2,88.3 C79.3,88.3 73.2,84.3 67.2,78.3 C70.1,75.2 72.9,71.7 75.7,67.8 C80.4,67.4 84.9,66.7 89.1,65.7 C89.6,67.5 89.9,69.3 90.2,71.1 C91.6,79.6 90.5,85.7 87.1,87.6 z M92.3,34.9 C103.5,38.1 110.2,43 110.2,47.5 C110.2,51.4 105.6,55.3 97.5,58.4 C95.9,59 94.1,59.6 92.3,60.1 C91,56 89.4,51.8 87.4,47.5 C89.4,43.2 91.1,39 92.3,34.9 z M84.3,6.7 C85.4,6.7 86.3,6.9 87.2,7.4 C90.5,9.3 91.7,15.3 90.3,23.9 C90,25.6 89.6,27.4 89.2,29.3 C85,28.4 80.5,27.7 75.8,27.2 C73.1,23.3 70.2,19.8 67.3,16.7 C73.3,10.8 79.4,6.7 84.3,6.7 z M69.6,26.8 C67.8,26.7 65.9,26.7 64,26.7 C62.1,26.7 60.2,26.7 58.4,26.8 C60.2,24.4 62.1,22.2 64,20.1 C65.9,22.2 67.8,24.5 69.6,26.8 z M40.9,7.4 C41.7,6.9 42.7,6.7 43.8,6.7 C48.7,6.7 54.8,10.7 60.8,16.7 C57.9,19.8 55.1,23.3 52.3,27.2 C47.6,27.6 43.1,28.3 38.9,29.3 C38.4,27.5 38.1,25.7 37.8,23.9 C36.4,15.4 37.5,9.4 40.9,7.4 z M35.7,60.1 C24.5,56.9 17.8,52 17.8,47.5 C17.8,43.6 22.4,39.7 30.5,36.6 C32.1,36 33.9,35.4 35.7,34.9 C37,39 38.6,43.2 40.6,47.5 C38.6,51.8 36.9,56.1 35.7,60.1 z M37.8,71.1 C38.1,69.4 38.5,67.6 38.9,65.7 C43.1,66.6 47.6,67.3 52.3,67.8 C55,71.7 57.9,75.2 60.8,78.3 C54.8,84.2 48.7,88.3 43.8,88.3 C42.7,88.3 41.8,88.1 40.9,87.6 C37.5,85.7 36.4,79.6 37.8,71.1 z M33.6,112.3 C35.8,109.6 35.9,106.6 34.7,103.6 C33.5,100.6 31,99.2 27.9,99.1 C24.2,99 20.4,99.1 16.7,99.1 L16,99.1 L16,125 L19,125 L19,115.2 L23.7,115.2 C24.3,115.2 24.8,115.4 25.1,115.9 L31.1,125.2 C31.2,125.4 31.5,125.7 31.7,125.7 L35.6,125.7 C33.2,122 30.9,118.5 28.5,114.9 C30.6,114.6 32.4,113.9 33.6,112.3 z M19,112.1 L19,102.2 L20.1,102.2 C22.4,102.2 24.8,102.1 27.1,102.3 C29.8,102.4 31.7,104.5 31.7,107.2 C31.7,109.9 29.5,112 26.8,112.1 C24.4,112.2 22,112.1 19,112.1 z M57.7,113.4 C56.1,106.4 49.7,104.6 44.8,106.8 C41,108.5 39.3,111.8 39.2,115.9 C39.1,119 40,121.8 42.4,123.9 C45.1,126.3 48.4,126.6 51.8,126 C53.7,125.6 55.4,124.7 56.7,123.3 C56.2,122.6 55.7,121.9 55.2,121.3 C52.4,123.7 49.3,124.5 45.9,122.9 C43.7,121.8 42.6,119.1 42.4,117.1 L57.9,117.1 L57.9,115.8 C58,114.9 57.9,114.1 57.7,113.4 z M42.6,115 C42.3,112 45.3,108.8 48.6,108.8 C52.4,108.7 54.8,111 54.9,115 L42.6,115 z M73.3,106.3 C71.8,106 70.2,105.9 68.7,106 C66.3,106.2 64.2,107.3 62.5,109.1 C63,109.8 63.4,110.5 64,111.3 C64.2,111.1 64.4,110.9 64.6,110.8 C66.2,109.3 68.1,108.5 70.4,108.7 C72.2,108.8 73.9,109.4 74.4,111.2 C74.8,112.6 74.7,114.1 74.8,115.6 C74.5,115.6 74.4,115.5 74.3,115.4 C71.9,113.4 69.2,113 66.3,113.7 C63.6,114.4 61.9,116.5 61.7,119.2 C61.5,122.3 62.9,124.6 65.6,125.7 C67.3,126.4 69.2,126.4 71,126 C72.4,125.7 73,124.9 75,123.8 L75,125.1 L77.8,125.1 C77.8,121.1 77.9,116.2 77.8,111.6 C77.8,108.7 76.1,106.9 73.3,106.3 z M74.7,118.9 C74.6,119.2 74.7,119.5 74.7,119.8 C74.7,121.9 74.2,122.6 72.2,123.4 C70.8,123.9 69.3,124.1 67.8,123.6 C66.1,123.1 64.9,121.6 64.9,119.9 C64.8,118.2 65.9,116.5 67.6,116 C69.9,115.2 72,115.7 73.9,117.1 C74.5,117.6 74.9,118.1 74.7,118.9 z M90.3,109 C92.9,108.2 95.3,108.7 97.1,110.9 L97.4,111.1 C98.1,110.5 98.7,109.9 99.5,109.2 C99.2,108.9 99.1,108.7 98.9,108.4 C96,105.3 90.3,104.9 86.8,107.4 C81.9,111 82,118 84.4,121.7 C86.7,125.2 90,126.4 93.9,125.9 C96.2,125.6 98.1,124.5 99.6,122.6 C98.9,122 98.2,121.4 97.5,120.7 C97.3,120.9 97.2,121 97.1,121.2 C94.4,124.2 89.9,123.9 87.5,120.7 C86.1,118.8 85.8,116.6 86.2,114.4 C86.4,111.9 87.7,109.9 90.3,109 z M111.1,122.6 C110.9,122.7 110.8,122.8 110.8,122.8 C110,123.4 109.2,123.5 108.3,123.2 C107.4,122.8 107.3,122 107.2,121.2 L107.2,109.8 C107.2,109.6 107.2,110 107.3,109 L111.1,109 L111.1,106 L107.1,106 L107.1,101 L104.1,101 L104.1,106.4 L101.5,106.4 C101.3,106.4 101,106.6 101,106.8 C100.9,107.5 101,108 101,109 L104.2,109 L104.2,121.8 C104.2,123.4 104.6,124.8 106,125.6 C107.5,126.5 110.4,126.3 111.7,125.2 C111.9,125.1 112,124.7 112,124.6 C111.7,124 111.4,123.3 111.1,122.6 z" fill="#325F74"/>
    </g>
  </g>
</svg>
