<?xml version="1.0" encoding="UTF-8"?>
<!DOCTYPE svg PUBLIC "-//W3C//DTD SVG 1.1//EN" "http://www.w3.org/Graphics/SVG/1.1/DTD/svg11.dtd">
<svg version="1.1" xmlns="http://www.w3.org/2000/svg" xmlns:xlink="http://www.w3.org/1999/xlink" x="0" y="0" width="48" height="48" viewBox="0, 0, 48, 48">
  <g id="Background">
    <rect x="0" y="0" width="48" height="48" fill="#000000" fill-opacity="0"/>
  </g>
  <g id="Layer_1">
    <path d="M43,0 L5,0 C2.24,0.003 0.003,2.24 0,5 L0,43 C0.003,45.76 2.24,47.997 5,48 L43,48 C45.76,47.997 47.997,45.76 48,43 L48,5 C47.997,2.24 45.76,0.003 43,0 z M46,43 C46,44.657 44.657,46 43,46 L5,46 C3.343,46 2,44.657 2,43 L2,5 C2,3.343 3.343,2 5,2 L43,2 C44.657,2 46,3.343 46,5 z" fill="#435A64"/>
    <path d="M4,8 L44,8 L44,10 L4,10 z" fill="#435A64"/>
    <path d="M5,4 L7,4 L7,6 L5,6 z" fill="#435A64"/>
    <path d="M9,4 L11,4 L11,6 L9,6 z" fill="#435A64"/>
    <path d="M41,4 L43,4 L43,6 L41,6 z" fill="#435A64"/>
    <path d="M29,13 L5,13 C4.448,13 4,13.448 4,14 L4,26 C4,26.552 4.448,27 5,27 L29,27 C29.552,27 30,26.552 30,26 L30,14 C30,13.448 29.552,13 29,13 z M28,25 L6,25 L6,15 L28,15 z" fill="#435A64"/>
    <path d="M32,13 L39,13 L39,15 L32,15 z" fill="#435A64"/>
    <path d="M38,25 L40,25 L40,27 L38,27 z" fill="#435A64"/>
    <path d="M42,25 L44,25 L44,27 L42,27 z" fill="#435A64"/>
    <path d="M32,17 L44,17 L44,19 L32,19 z" fill="#435A64"/>
    <path d="M32,21 L44,21 L44,23 L32,23 z" fill="#435A64"/>
    <path d="M15,29 L5,29 C4.448,29 4,29.448 4,30 L4,38 C4,38.552 4.448,39 5,39 L15,39 C15.552,39 16,38.552 16,38 L16,30 C16,29.448 15.552,29 15,29 z M14,37 L6,37 L6,31 L14,31 z" fill="#435A64"/>
    <path d="M43,29 L33,29 C32.448,29 32,29.448 32,30 L32,38 C32,38.552 32.448,39 33,39 L43,39 C43.552,39 44,38.552 44,38 L44,30 C44,29.448 43.552,29 43,29 z M42,37 L34,37 L34,31 L42,31 z" fill="#435A64"/>
    <path d="M29,29 L19,29 C18.448,29 18,29.448 18,30 L18,38 C18,38.552 18.448,39 19,39 L29,39 C29.552,39 30,38.552 30,38 L30,30 C30,29.448 29.552,29 29,29 z M28,37 L20,37 L20,31 L28,31 z" fill="#435A64"/>
    <path d="M4,41 L16,41 L16,43 L4,43 z" fill="#435A64"/>
    <path d="M18,41 L30,41 L30,43 L18,43 z" fill="#435A64"/>
    <path d="M32,41 L44,41 L44,43 L32,43 z" fill="#435A64"/>
  </g>
</svg>
