<?xml version="1.0" encoding="UTF-8"?>
<!DOCTYPE svg PUBLIC "-//W3C//DTD SVG 1.1//EN" "http://www.w3.org/Graphics/SVG/1.1/DTD/svg11.dtd">
<svg version="1.1" xmlns="http://www.w3.org/2000/svg" xmlns:xlink="http://www.w3.org/1999/xlink" x="0" y="0" width="256" height="256" viewBox="0, 0, 256, 256">
  <g id="Background">
    <rect x="0" y="0" width="256" height="256" fill="#000000" fill-opacity="0"/>
  </g>
  <g id="Layer_1">
    <path d="M256,0 L256,256 L0,256 L0,0 L256,0 z M234.044,97.001 C216.577,97.001 207.555,102.375 207.555,119.266 L207.555,142.588 C207.555,153.625 210.818,160.919 227.326,160.919 C242.393,160.919 247,153.433 247,143.452 L247,138.845 C247,127.808 242.297,123.009 230.685,123.009 C226.558,123.009 222.623,123.585 219.264,124.737 L219.264,118.787 C219.264,108.997 223.967,107.078 235.291,107.078 C237.307,107.078 241.53,107.366 244.313,107.942 L245.081,98.152 C242.201,97.481 237.595,97.001 234.044,97.001 z M228.861,133.087 C233.084,133.087 235.291,134.526 235.291,139.133 L235.291,143.835 C235.291,148.73 233.372,150.842 227.326,150.842 C221.279,150.842 219.264,149.114 219.264,143.836 L219.264,135.102 C221.951,133.95 225.406,133.087 228.861,133.087 z M177.132,95.081 C160.912,95.081 155.634,100.84 155.634,112.452 C155.634,125.985 157.745,128.96 173.197,132.415 C184.714,134.91 184.906,135.486 184.906,142.588 C184.906,148.73 183.466,150.554 174.732,150.554 C168.398,150.554 162.64,149.402 156.69,147.578 L154.578,157.08 C158.801,159.095 167.247,160.919 174.541,160.919 C193.447,160.919 196.998,154.68 196.998,142.588 C196.998,129.823 196.134,127.04 178.955,122.913 C167.918,120.226 167.726,120.034 167.726,112.74 C167.726,107.174 169.166,105.446 177.324,105.446 C182.89,105.446 189.128,106.214 194.407,107.366 L195.751,97.193 C189.416,95.753 182.698,95.081 177.132,95.081 z M144.693,96.041 L105.536,96.041 L105.536,159.959 L144.693,159.959 L144.693,149.306 L117.629,149.306 L117.629,132.799 L142.582,132.799 L142.582,122.146 L117.629,122.146 L117.629,106.694 L144.693,106.694 L144.693,96.041 z" fill="#325F74"/>
  </g>
</svg>
