<?xml version="1.0" encoding="UTF-8"?>
<!DOCTYPE svg PUBLIC "-//W3C//DTD SVG 1.1//EN" "http://www.w3.org/Graphics/SVG/1.1/DTD/svg11.dtd">
<svg version="1.1" xmlns="http://www.w3.org/2000/svg" xmlns:xlink="http://www.w3.org/1999/xlink" x="0" y="0" width="512" height="149" viewBox="0, 0, 512, 149">
  <g id="Background">
    <rect x="0" y="0" width="512" height="149" fill="#000000" fill-opacity="0"/>
  </g>
  <g id="Layer_1">
    <path d="M3.332,115.629 L3.332,58.648 L74.476,58.648 L74.476,55.315 L3.332,55.315 L3.332,3.332 L78.974,3.332 L78.974,-0 L0,-0 L0,118.961 L79.641,118.961 L79.641,115.629 L3.332,115.629 L3.332,115.629 z M143.787,33.322 L114.296,72.143 L85.472,33.322 L81.14,33.322 L112.297,74.642 L78.141,118.961 L82.14,118.961 L114.296,77.142 L146.619,118.961 L150.784,118.961 L116.462,74.642 L147.785,33.322 L143.787,33.322 L143.787,33.322 z M160.781,148.285 L160.781,94.969 L161.114,94.969 C163.114,102.744 167.057,108.992 172.944,113.713 C178.831,118.434 186.328,120.794 195.436,120.794 C201.323,120.794 206.544,119.6 211.098,117.212 C215.652,114.824 219.456,111.575 222.511,107.465 C225.565,103.355 227.898,98.579 229.509,93.136 C231.119,87.694 231.924,81.973 231.924,75.975 C231.924,69.533 231.091,63.59 229.425,58.148 C227.759,52.705 225.343,47.984 222.178,43.986 C219.012,39.987 215.18,36.877 210.681,34.655 C206.183,32.434 201.101,31.323 195.436,31.323 C191.104,31.323 187.078,31.962 183.357,33.239 C179.636,34.517 176.331,36.321 173.444,38.654 C170.556,40.987 168.056,43.736 165.946,46.901 C163.836,50.067 162.225,53.538 161.114,57.315 L160.781,57.315 L160.781,33.322 L157.449,33.322 L157.449,148.285 L160.781,148.285 L160.781,148.285 z M195.436,117.628 C184.995,117.628 176.609,114.046 170.278,106.882 C163.947,99.718 160.781,89.415 160.781,75.975 C160.781,70.421 161.559,65.145 163.114,60.147 C164.669,55.149 166.918,50.761 169.861,46.985 C172.805,43.208 176.443,40.209 180.774,37.988 C185.106,35.766 189.994,34.655 195.436,34.655 C200.99,34.655 205.85,35.766 210.015,37.988 C214.18,40.209 217.624,43.236 220.345,47.068 C223.066,50.9 225.121,55.288 226.51,60.23 C227.898,65.173 228.592,70.421 228.592,75.975 C228.592,80.974 227.954,85.944 226.676,90.887 C225.399,95.83 223.427,100.273 220.761,104.216 C218.096,108.159 214.68,111.38 210.515,113.88 C206.349,116.379 201.323,117.628 195.436,117.628 L195.436,117.628 L195.436,117.628 z M250.252,118.961 L250.252,70.477 C250.252,65.812 250.918,61.258 252.251,56.815 C253.584,52.372 255.639,48.456 258.416,45.069 C261.193,41.681 264.719,39.015 268.996,37.071 C273.272,35.127 278.354,34.322 284.241,34.655 L284.241,31.323 C279.131,31.212 274.661,31.767 270.828,32.989 C266.996,34.211 263.692,35.877 260.915,37.988 C258.138,40.098 255.917,42.569 254.251,45.402 C252.584,48.234 251.363,51.261 250.585,54.482 L250.252,54.482 L250.252,33.322 L246.92,33.322 L246.92,118.961 L250.252,118.961 L250.252,118.961 z M288.406,76.808 L360.049,76.808 C360.272,70.921 359.688,65.257 358.3,59.814 C356.912,54.371 354.69,49.539 351.636,45.319 C348.581,41.098 344.638,37.71 339.806,35.155 C334.974,32.6 329.226,31.323 322.562,31.323 C317.785,31.323 313.12,32.323 308.566,34.322 C304.012,36.322 300.013,39.237 296.57,43.069 C293.127,46.901 290.35,51.594 288.24,57.148 C286.129,62.702 285.074,69.033 285.074,76.142 C285.074,82.473 285.796,88.388 287.24,93.886 C288.684,99.384 290.905,104.161 293.904,108.215 C296.903,112.269 300.763,115.407 305.484,117.628 C310.205,119.85 315.897,120.905 322.562,120.794 C332.336,120.794 340.556,118.045 347.22,112.547 C353.885,107.048 357.828,99.301 359.05,89.304 L355.718,89.304 C354.274,98.746 350.58,105.827 344.638,110.547 C338.695,115.268 331.226,117.628 322.228,117.628 C316.119,117.628 310.954,116.573 306.733,114.463 C302.513,112.352 299.069,109.464 296.404,105.799 C293.738,102.133 291.766,97.829 290.489,92.886 C289.211,87.944 288.517,82.584 288.406,76.808 L288.406,76.808 L288.406,76.808 z M356.717,73.476 L288.406,73.476 C288.739,67.478 289.85,62.091 291.738,57.315 C293.627,52.538 296.098,48.456 299.153,45.069 C302.207,41.681 305.762,39.098 309.816,37.321 C313.87,35.544 318.23,34.655 322.895,34.655 C328.449,34.655 333.336,35.683 337.557,37.738 C341.778,39.793 345.304,42.597 348.137,46.152 C350.969,49.706 353.107,53.844 354.551,58.564 C355.995,63.285 356.717,68.256 356.717,73.476 L356.717,73.476 L356.717,73.476 z M429.194,58.648 L432.526,58.648 C432.526,49.095 429.749,42.153 424.195,37.821 C418.641,33.489 411.088,31.323 401.536,31.323 C396.204,31.323 391.706,31.99 388.04,33.322 C384.375,34.655 381.376,36.377 379.043,38.487 C376.711,40.598 375.045,42.93 374.045,45.485 C373.045,48.04 372.545,50.484 372.545,52.816 C372.545,57.481 373.378,61.202 375.045,63.979 C376.711,66.756 379.321,68.922 382.875,70.477 C385.319,71.588 388.096,72.587 391.206,73.476 C394.316,74.365 397.926,75.309 402.036,76.308 C405.701,77.197 409.311,78.086 412.866,78.974 C416.42,79.863 419.558,81.057 422.279,82.556 C425.001,84.056 427.222,85.972 428.944,88.305 C430.665,90.637 431.526,93.692 431.526,97.468 C431.526,101.134 430.665,104.244 428.944,106.799 C427.222,109.353 425.028,111.436 422.363,113.047 C419.697,114.657 416.725,115.823 413.449,116.545 C410.172,117.267 406.979,117.628 403.869,117.628 C393.761,117.628 386.013,115.379 380.626,110.881 C375.239,106.382 372.545,99.301 372.545,89.637 L369.213,89.637 C369.213,100.412 372.129,108.298 377.96,113.296 C383.792,118.295 392.428,120.794 403.869,120.794 C407.534,120.794 411.227,120.377 414.948,119.544 C418.669,118.711 422.001,117.351 424.945,115.462 C427.889,113.574 430.277,111.131 432.109,108.131 C433.942,105.132 434.858,101.467 434.858,97.135 C434.858,93.025 434.053,89.693 432.443,87.138 C430.832,84.584 428.722,82.473 426.111,80.807 C423.501,79.141 420.558,77.836 417.281,76.892 C414.004,75.947 410.7,75.031 407.367,74.143 C402.702,72.921 398.62,71.866 395.121,70.977 C391.622,70.088 388.374,69.033 385.375,67.811 C382.487,66.589 380.182,64.84 378.46,62.563 C376.738,60.286 375.878,57.037 375.878,52.816 C375.878,52.039 376.1,50.65 376.544,48.651 C376.988,46.651 378.044,44.624 379.71,42.569 C381.376,40.515 383.931,38.682 387.374,37.071 C390.817,35.461 395.538,34.655 401.536,34.655 C405.646,34.655 409.395,35.1 412.782,35.988 C416.17,36.877 419.086,38.293 421.529,40.237 C423.973,42.181 425.861,44.652 427.194,47.651 C428.527,50.65 429.194,54.316 429.194,58.648 L429.194,58.648 L429.194,58.648 z M506.335,58.648 L509.667,58.648 C509.667,49.095 506.891,42.153 501.337,37.821 C495.783,33.489 488.23,31.323 478.678,31.323 C473.346,31.323 468.847,31.99 465.182,33.322 C461.516,34.655 458.517,36.377 456.185,38.487 C453.852,40.598 452.186,42.93 451.186,45.485 C450.187,48.04 449.687,50.484 449.687,52.816 C449.687,57.481 450.52,61.202 452.186,63.979 C453.852,66.756 456.462,68.922 460.017,70.477 C462.461,71.588 465.237,72.587 468.348,73.476 C471.458,74.365 475.068,75.309 479.177,76.308 C482.843,77.197 486.453,78.086 490.007,78.974 C493.562,79.863 496.699,81.057 499.421,82.556 C502.142,84.056 504.364,85.972 506.085,88.305 C507.807,90.637 508.668,93.692 508.668,97.468 C508.668,101.134 507.807,104.244 506.085,106.799 C504.364,109.353 502.17,111.436 499.504,113.047 C496.838,114.657 493.867,115.823 490.59,116.545 C487.314,117.267 484.12,117.628 481.01,117.628 C470.902,117.628 463.155,115.379 457.768,110.881 C452.38,106.382 449.687,99.301 449.687,89.637 L446.355,89.637 C446.355,100.412 449.27,108.298 455.102,113.296 C460.933,118.295 469.569,120.794 481.01,120.794 C484.676,120.794 488.369,120.377 492.09,119.544 C495.811,118.711 499.143,117.351 502.087,115.462 C505.03,113.574 507.418,111.131 509.251,108.131 C511.084,105.132 512,101.467 512,97.135 C512,93.025 511.195,89.693 509.584,87.138 C507.974,84.584 505.863,82.473 503.253,80.807 C500.643,79.141 497.699,77.836 494.422,76.892 C491.146,75.947 487.841,75.031 484.509,74.143 C479.844,72.921 475.762,71.866 472.263,70.977 C468.764,70.088 465.515,69.033 462.516,67.811 C459.628,66.589 457.323,64.84 455.602,62.563 C453.88,60.286 453.019,57.037 453.019,52.816 C453.019,52.039 453.241,50.65 453.686,48.651 C454.13,46.651 455.185,44.624 456.851,42.569 C458.517,40.515 461.072,38.682 464.515,37.071 C467.959,35.461 472.679,34.655 478.678,34.655 C482.787,34.655 486.536,35.1 489.924,35.988 C493.312,36.877 496.227,38.293 498.671,40.237 C501.115,42.181 503.003,44.652 504.336,47.651 C505.669,50.65 506.335,54.316 506.335,58.648 L506.335,58.648 L506.335,58.648 z" fill="#325F74"/>
  </g>
</svg>
