<?xml version="1.0" encoding="UTF-8"?>
<!DOCTYPE svg PUBLIC "-//W3C//DTD SVG 1.1//EN" "http://www.w3.org/Graphics/SVG/1.1/DTD/svg11.dtd">
<svg version="1.1" xmlns="http://www.w3.org/2000/svg" xmlns:xlink="http://www.w3.org/1999/xlink" x="0" y="0" width="833.334" height="623.309" viewBox="0, 0, 833.334, 623.309">
  <g id="Background">
    <rect x="0" y="0" width="833.334" height="623.309" fill="#000000" fill-opacity="0"/>
  </g>
  <g id="Layer_1">
    <path d="M2.804,0 C5.954,2.028 0.172,5.855 -0,2.19 C0.407,1.021 1.573,0.104 2.804,0 z M26.68,14.018 C32.875,13.333 33.857,23.857 27.162,23.393 C21.41,23.448 19.891,13.955 26.68,14.018 z M343.412,18.18 C346.641,18.575 346.754,20.391 343.807,19.363 C343.522,19.182 342.96,18.207 343.412,18.18 z M410.834,20.633 C417.187,20.082 413.679,29.436 410.089,28.562 C408.11,25.743 412.058,23.354 410.834,20.633 z M357.081,20.94 C358.512,27.673 368.42,27.48 370.924,34.126 C371.834,36.07 374.669,42.38 376.401,38.025 C375.929,34.887 374.607,28.122 378.722,27.774 C377.119,30.346 380.368,31.373 381.439,31.585 C379.305,36.85 382.843,42.599 388.842,41.223 C392.108,39.424 391.129,45.415 395.369,44.027 C396.665,44.776 391.252,45.425 391.47,47.707 C388.055,49.628 380.288,47.098 380.824,53.446 C380.352,56.566 373.386,62.464 379.511,63.434 C383.162,63.255 384.574,56.796 386.169,56.644 C386.8,66.079 388.675,75.361 388.622,84.944 C388.986,89.799 394.28,91.498 397.077,94.494 C400.455,94.406 403.426,95.059 404.087,98.787 C405.532,100.991 408.856,99.833 405.358,101.809 C402.804,105.963 407.963,107.245 410.396,108.205 C407.679,110.893 400.778,113.755 401.678,118.719 C406.006,120.047 400.094,124.094 398.524,125.772 C396.53,126.46 392.222,125.469 394.099,129.452 C396.13,134.267 404.349,127.783 402.861,134.621 C402.74,140.577 411.424,147.641 405.095,152.539 C401.11,155.311 404.686,159.897 408.293,160.6 C413.356,163.044 413.347,168.301 412.937,173.085 C414.419,176.451 418.73,177.263 420.735,180.007 C423.999,179.941 422.73,187.02 427.613,185.658 C432.417,186.155 435.911,182.047 440.756,184.169 C448.036,184.048 442.189,175.364 442.989,172.034 C446.791,171.008 446.052,166.068 447.677,164.149 C450.373,164.878 449.866,171.606 453.679,167.653 C457.318,161.19 450.1,153.384 446.276,149.999 C451.092,148.709 448.604,144.69 447.24,141.895 C446.535,137.182 448.08,132.626 452.102,130.373 C454.288,128.468 454.554,119.285 457.052,124.766 C458.219,131.196 459.524,137.841 465.238,142.175 C468.365,146.481 473.224,147.715 477.161,149.999 C479.785,150.023 482.709,148.57 482.768,152.409 C486.947,156.821 478.976,152.909 476.766,155.782 C473.666,157.531 467.347,163.909 473.524,165.814 C479.835,167.269 488.17,164.009 492.756,168.968 C495.457,167.637 493.58,163.302 497.838,166.997 C501.682,168.626 503.229,173.817 499.239,175.978 C496.398,188.077 513.993,194.505 522.195,187.105 C528.453,184.827 537.056,183.585 539.237,176.329 C546.106,168.595 550.215,158.803 558.556,152.453 C560.444,150.302 565.301,141.634 567.667,147.809 C565.754,165.452 553.142,179.689 541.688,192.318 C539.603,194.231 538.398,197.998 537.438,199.766 C534.499,198.274 530.427,199.139 531.086,202.92 C528.895,205.539 524.921,208.504 527.976,212.163 C530.49,218.583 522.326,226.369 527.932,231.395 C532.112,234.032 537.508,236.39 537.263,242.215 C540.368,248.854 551.129,250.736 555.881,245.501 C560.427,243.492 564.86,245.693 567.184,249.355 C570.861,248.78 566.815,253.124 568.367,255.576 C570.202,259.554 565.054,264.027 567.579,267.098 C563.606,269.19 552.891,268.866 555.926,275.947 C556.737,279.366 561.176,281.531 558.336,284.928 C557.615,288.846 560.789,292.255 563.899,292.594 C563.469,299.127 571.174,301.286 575.771,297.939 C580.528,296.746 583.284,292.977 587.336,291.324 C588.712,289.828 588.197,285.171 589.352,289.44 C588.56,291.509 589.712,293.542 590.272,295.003 C585.923,298.607 591.336,302.187 595.266,301.093 C597.647,301.292 606.828,299.786 602.932,304.817 C600.06,308.505 602.013,315.452 596.098,316.996 C591.703,319.893 581.73,315.689 581.466,322.998 C582.254,327.363 587.91,322.947 586.68,327.816 C588.594,330.545 593.052,331.176 591.937,335.658 C591.298,338.844 594.167,345.111 588.87,344.42 C585.492,347.402 578.692,342.805 577.218,347.749 C577.201,351.233 573.287,352.862 570.691,350.771 C563.346,351.965 560.98,362.732 563.375,368.733 C566.727,370.124 564.308,369.271 562.631,371.055 C559.683,376.763 553.452,383.33 557.856,390.112 C559.852,392.098 564.96,391.556 562.762,395.763 C560.136,400.855 557.225,411.358 549.358,408.247 C542.919,408.218 532.817,408.87 530.651,416.089 C531.369,422.566 539.749,419.023 543.356,422.616 C549.056,426.088 553.931,416.019 559.213,421.345 C562.094,424.064 562.556,429.27 558.425,430.939 C558.102,435.71 553.95,432.718 552.16,430.72 C546.195,430.132 549.053,438.656 544.318,440.707 C543.24,442.752 545.04,446.796 541.121,444.781 C538.116,443.945 537.964,450.314 535.382,447.585 C537.206,439.691 525.159,440.323 525.744,432.778 C524.577,428.115 526.042,423.749 529.906,421.213 C530.091,417.342 522.124,414.483 521.932,419.899 C521.709,425.043 516.308,428.054 516.763,433.216 C514.207,432.918 506.79,431.472 509.491,436.151 C512.77,438.785 507.647,445.568 513.828,445.307 C516.628,445.395 520.205,441.96 518.341,446.534 C517.611,449.448 513.85,453.07 512.295,448.68 C510.798,443.914 505.09,442.754 502.307,447.015 C496.706,449.892 496.051,457.448 501.738,460.158 C498.673,462.664 495.335,464.696 492.144,466.685 C492.626,470.416 486.841,469.182 487.37,472.863 C483.575,470.349 486.992,465.307 483.865,462.174 C484.34,458.712 492.063,455.456 485.793,453.018 C481.578,450.893 475.543,446.255 471.686,449.557 C471.092,454.042 476.543,463.836 468.795,464.321 C465.257,464.604 460.648,463.051 458.019,462.305 C458.877,457.558 453.466,456.48 453.112,452.405 C448.474,447.479 442.394,456.708 448.206,459.72 C451.987,462.086 445.038,466.086 446.979,469.664 C449.94,473.474 441.814,471.376 440.057,470.277 C434.36,468.419 434.829,460.766 428.667,459.281 C424.046,458.227 423.001,448.217 417.539,452.184 C415.092,455.045 409.823,453.271 407.813,457.222 C402.807,461.103 402.405,466.501 408.383,469.576 C412.817,471.888 415.114,463.97 420.167,466.904 C431.576,470.4 440.466,482.588 437.961,494.853 C438.917,499.712 435.26,505.075 436.814,509.353 C438.706,511.036 439.128,518.325 435.938,518.378 C433.543,515.427 429.338,514.554 427.79,518.991 C423.339,522.203 421.088,514.934 420.343,512.069 C416.479,513.219 416.831,520.936 412.808,521.926 C413.565,517.942 407.672,522.169 408.91,517.983 C410.228,511.585 404.441,506.941 407.552,500.679 C408.44,496.774 406.402,493.579 408.253,489.902 C409.031,483.057 405.761,475.402 398.746,473.737 C395.603,470.211 391.463,476.311 389.064,476.453 C389.662,472.441 393.435,471.215 394.189,467.515 C400.143,463.907 405.924,456.932 406.017,449.729 C405.052,442.968 396.452,442.907 392.788,447.626 C390.471,451.014 385.997,451.272 384.07,454.153 C385.788,456.248 387.038,457.658 383.632,459.103 C380.771,454.999 386.25,448.886 388.576,445.343 C395.143,438.833 384.108,441.244 380.828,438.381 C379.774,432.514 387.604,428.829 386.83,422.392 C388.827,417.34 386.875,407.128 379.952,408.548 C376.44,415.01 369.104,416.443 362.473,414.901 C356.423,414.593 348.723,416.675 347.972,423.444 C345.324,425.491 346.318,419.224 347.534,418.274 C350.18,412.295 341.333,412.214 339.561,407.585 C337.255,403.623 348.977,398.236 342.19,395.188 C337.49,392.964 336.809,399.262 332.727,398.692 C324.883,398.634 315.347,401.617 308.414,398.035 C310.282,395.494 311.804,390.339 306.968,389.712 C301.85,390.932 297.29,389.033 293.652,385.419 C289.782,384.028 286.306,382.546 284.014,378.892 C278.144,378.973 282.863,390.065 275.778,388.705 C266.78,388.042 260.628,380.44 255.801,373.897 C248.129,375.387 237.763,370.868 231.53,376.789 C227.719,385.205 217.588,390.451 208.838,389.756 C203.641,385.888 201.045,395.111 195.564,394.225 C184.484,396.538 172.435,394.248 164.898,385.419 C161.638,381.995 152.362,379.221 156.662,373.152 C160.67,367.577 169.268,371.224 173.134,365.048 C177.139,359.052 185.818,355.664 191.752,361.368 C194.516,365.455 198.342,372.505 204.457,369.034 C207.105,368.952 205.789,361.657 207.567,363.953 C206.459,371.11 215.043,369.479 219.483,369.867 C226.147,370.921 233.722,371.95 238.583,366.143 C243.599,361.824 253.762,364.589 254.924,355.979 C256.873,351.595 254.872,345.527 256.939,341.654 C262.89,340.998 270.777,349.809 275.426,343.451 C275.291,336.199 260.823,341.154 262.897,333.287 C264.794,328.232 268.849,323.118 275.032,324.744 C279.598,325.51 284.865,324.031 285.24,318.743 C288.426,310.691 294.931,304.382 299.127,297.189 C297.541,295.13 294.19,295.044 293.52,291.582 C290.968,288.663 286.488,289.748 284.802,292.546 C278.582,294.996 273.329,291.53 268.068,288.953 C263.12,287.371 265.177,280.516 261.146,277.739 C258.963,272.546 261.092,267.338 264.3,263.414 C265.979,261.947 268.853,259.742 272.186,259.996 C276.941,257.923 283.044,263.183 286.731,259.383 C286.757,255.511 290.226,259.486 289.447,261.487 C291.864,267.548 294.738,273.424 295.537,279.929 C298.643,284.868 306.981,285.308 307.803,291.625 C310.382,292.425 312.157,293.21 311.089,296.663 C311.555,302.776 305.965,308.999 311.614,314.274 C313.705,316.669 317.38,316.178 318.404,319.618 C324.2,321.656 322.997,312.29 324.011,308.929 C328.536,303.808 324.968,295.01 320.945,290.968 C324.371,287.546 324.689,279.449 319.456,278.131 C317.733,274.358 325.919,275.713 322.961,270.99 C321.738,268.433 316.02,268.163 318.23,264.638 C321.595,265.905 329.883,265.997 327.254,260.344 C325.177,258.894 323.989,255.756 327.779,256.576 C331.33,258.835 334.646,255.45 331.328,252.809 C333.553,248.08 340.251,245.733 343.595,250.268 C349.882,251.412 345.765,243.003 344.866,241.901 C351.445,240.703 348.402,232.684 345.129,229.678 C344.855,225.239 339.58,225.657 337.112,224.201 C337.401,212.19 323.983,206.044 315.296,200.545 C310.688,196.385 300.656,203.598 306.534,208.256 C309.417,212.445 301.335,209.878 303.293,205.846 C301.046,201.787 298.541,207.513 295.933,205.145 C290.31,203.228 283.791,208.512 278.848,205.671 C275.39,198.892 278.614,190.365 276.175,183.066 C275.895,176.567 281.402,170.583 286.821,167.733 C295.925,167.289 287.488,161.641 284.937,158.139 C281.88,151.247 288.153,142.073 283.492,135.972 C272.442,135.659 261.56,126.867 261.106,115.601 C257.06,110.852 248.796,113.03 243.101,112.009 C237.554,113.572 243.806,121.744 247.875,121.472 C250.558,122.12 246.255,127.678 249.54,129.576 C251.456,131.546 255.109,132.691 251.336,135.052 C248.438,137.863 251.625,141.878 248.27,144.208 C245.983,148.079 250.164,151.84 253.264,151.086 C250.762,154.829 254.999,161.904 253.833,163.878 C246.888,163.801 250.776,172.632 252.738,173.954 C248.739,175.443 251.208,169.808 247.043,169.792 C242.95,170.405 239.321,169.78 235.653,168.084 C232.157,169.312 231.911,167.501 231.14,164.492 C226.482,158.964 229.093,151.738 230.396,145.655 C228.696,142.98 224.106,144.744 223.167,140.661 C217.641,133.145 217.491,119.711 227.548,116.04 C231.771,116.998 240.795,111.835 235.039,108.067 C231.793,104.985 224.629,106.908 225.095,100.795 C223.215,93.783 224.119,84.534 232.674,82.834 C242.662,78.624 248.642,91.591 257.162,94.399 C260.998,95.165 261.43,98.214 261.28,101.452 C263.386,107.985 270.301,110.207 276.262,111.09 C278.742,112.856 280.898,119.403 284.28,115.252 C286.543,110.031 294.89,116.222 290.982,119.37 C283.709,118.077 275.457,128.74 283.184,133.476 C292.71,136.988 305.161,131.5 312.054,141.362 C318.007,147.044 321.832,160.995 311.878,164.58 C309.183,165.741 311.839,170.819 307.936,168.391 C301.787,167.09 305.88,174.689 308.9,176.145 C310.748,178.124 316.485,176.402 313.325,180.351 C307.349,182.706 313.305,191.047 316.742,193.318 C317.99,194.182 310.829,192.865 313.763,196.56 C320.072,204.59 331.127,209.038 340.881,205.102 C346.237,207.056 347.166,214.807 352.753,215.748 C353.901,219.779 358.716,219.903 360.244,215.879 C362.58,210.679 365.777,206.263 371.415,204.796 C374.761,200.345 367.326,199.955 364.362,199.495 C361.848,198.245 354.341,195.827 359.412,193.012 C360.976,185.256 375.35,187.555 375.269,178.38 C375.728,175.424 376.636,183.003 378.379,183.856 C383.195,187.388 387.381,178.121 382.453,175.62 C377.711,172.84 378.71,167.383 376.89,163.178 C374.922,161.86 370.17,162.394 372.246,158.578 C373.607,154.255 375.741,149.489 380.35,148.458 C382.68,141.05 370.84,140.258 368.522,134.833 C365.66,135.712 359.938,132.38 363.704,129.532 C365.616,126.401 361.255,122.524 361.732,121.077 C365.492,116.678 359.059,110.744 357.219,106.533 C352.483,104.571 357.639,98.596 352.707,96.895 C351.224,93.793 352.598,89.361 351.042,86.075 C352.343,80.778 358.866,74.744 352.882,69.822 C349.525,67.836 353.496,64.946 353.758,62.068 C356.632,63.607 356.98,74.186 362.52,68.683 C363.034,73.472 358.743,71.311 356.255,72.582 C354.257,78.01 363.729,78.006 367.075,78.014 C372.154,79.754 376.608,73.482 372.113,69.953 C370.742,67.323 369.838,62.76 365.586,62.374 C369.686,60.506 365.072,54.726 369.747,53.569 C375.437,50.916 369.751,45.447 365.498,45.815 C361.828,43.851 353.395,43.912 352.093,39.462 C356.085,37.496 357.521,28.178 351.129,29.955 C347.77,28.87 348.546,18.812 351.874,24.392 C354.736,25.912 355.428,20.941 357.087,20.931 L357.081,20.94 z M101.245,21.247 C108.872,19.063 112.339,31.938 120.258,27.599 C123.727,25.086 123.172,32.234 126.567,32.637 C124.737,36.302 126.975,42.781 131.649,39.252 C132.816,34.494 133.241,42.505 136.6,41.881 C140.208,42.053 140.134,46.141 141.901,47.97 C140.617,51.45 142.293,56.782 143.04,58.616 C139.631,58.39 134.374,59.54 134.979,63.742 C130.508,64.716 128.495,56.833 124.421,61.113 C123.067,62.813 122.056,70.277 118.858,67.728 C117.848,63.922 125.073,65.178 123.502,60.281 C124.22,55.924 121.044,52.493 116.887,52.352 C111.966,49.362 107.568,44.756 101.904,43.634 C100.345,46.156 100.432,45.49 97.698,44.948 C96.469,47.485 94.643,47.968 94.413,44.51 C91.007,43.735 92.278,39.067 88.762,37.676 C86.403,33.218 87.912,27.236 92.968,25.672 C95.079,22.935 97.667,21.159 101.245,21.247 L101.245,21.247 z M160.956,22.035 C163.635,24.295 160.706,25.027 160.956,22.035 z M249.973,24.795 C249.627,24.958 249.627,24.632 249.973,24.795 z M389.98,27.555 C391.668,29.123 391.106,35.128 388.14,32.856 C388.948,31.539 388.311,27.675 389.98,27.555 z M28.429,31.848 C35.303,30.766 38.831,40.353 32.153,43.326 C23.813,48.847 18.423,32.577 28.429,31.848 z M156.747,32.111 C159.549,32.062 160.168,36.512 156.922,33.644 C156.387,33.032 154.933,32.275 156.747,32.111 z M440.23,32.462 C443.552,34.762 437.887,32.402 440.23,32.462 z M288.13,36.141 C295.294,35.571 295.773,47.355 287.692,43.895 C283.749,42.403 282.537,35.914 288.13,36.141 z M444.74,37.282 C446.041,39.343 444.806,37.853 444.74,37.282 z M153.941,41.969 C156.479,43.498 153.157,43.358 153.941,41.969 z M344.551,44.379 C347.734,45.049 343.899,46.398 343.455,44.51 C343.816,44.415 344.174,44.404 344.551,44.379 z M188.766,47.182 C191.054,46.111 197.146,49.981 191.745,50.03 C190.082,50.432 182.1,49.866 186.182,47.62 C187.017,47.34 187.897,47.273 188.766,47.182 L188.766,47.182 z M335.177,50.424 C339.4,49.883 339.465,56.813 335.703,56.733 C332.936,54.432 329.768,52.014 335.177,50.424 z M434.574,51.607 C437.319,52.216 435.012,57.69 439.481,56.82 C442.735,57.845 448.561,55.832 450.432,56.864 C451.969,59.957 448.295,64.447 445.702,60.676 C441.371,57.267 438.166,63.894 437.203,65.188 C435.204,62.095 428.156,62.266 432.69,58.31 C432.845,56.119 436.796,55.53 434.75,52.352 C434.777,52.09 434.257,51.579 434.574,51.607 L434.574,51.607 z M398.651,53.228 C403.953,52.849 395.68,57.853 396.768,53.841 C397.285,53.387 397.964,53.213 398.651,53.228 z M162.785,53.534 C168.695,53.26 175.437,56.3 174.437,63.084 C174.422,66.679 173.471,70.193 169.837,71.057 C168.918,74.196 167.115,74.401 165.281,71.495 C162.849,68.05 156.869,69.122 157.22,63.61 C156.717,59.689 157.879,53.594 162.785,53.534 L162.785,53.534 z M111.003,54.192 C114.26,56.241 108.843,55.549 111.003,54.192 z M419.542,54.236 C421.748,55.156 424.402,58.777 419.761,58.266 C416.906,59.658 416.855,53.917 419.542,54.236 z M565.814,54.367 C568.918,54.172 573.967,57.71 569.582,60.018 C560.178,63.784 562.723,75.483 558.67,83.065 C555.894,90.315 554.316,98.462 550.482,104.965 C547.901,105.538 548.88,99.047 548.949,97.211 C550.401,93.221 548.03,88.41 552.366,86.171 C559.758,77.292 558.919,64.537 564.106,55.024 C564.639,54.684 565.13,54.332 565.814,54.367 L565.814,54.367 z M314.498,57.259 C319.335,58.375 310.208,65.631 309.81,62.034 C313.059,61.754 312.514,57.897 314.498,57.259 z M410.874,65.67 C414.34,65.635 413.211,69.912 409.998,67.948 C408.43,67.266 409.541,65.76 410.874,65.67 z M144.305,66.503 C146.931,66.012 152.829,66.918 149.562,70.489 C148.029,74.14 143.812,76.8 141.545,72.197 C138.606,69.353 140.426,66.415 144.305,66.503 L144.305,66.503 z M576.213,66.985 C580.154,67.048 575.396,71.663 575.731,68.168 C575.872,67.841 575.618,66.897 576.213,66.985 z M233.632,68.649 C234.985,67.749 239.415,70.464 236.962,70.839 C235.785,70.371 234.259,69.361 233.632,68.649 z M431.73,69.657 C433.413,71.789 432.222,77.716 429.409,73.863 C431.216,72.989 430.847,70.775 431.73,69.657 z M641.964,70.007 C646.874,68.943 650.127,78.482 644.549,78.812 C642.293,83.601 642.878,89.837 638.635,93.926 C635.085,98.823 633.091,99.848 637.846,93.926 C641.591,88.909 646.019,80.413 640.475,75.351 C640.177,73.966 639.92,70.047 641.964,70.007 L641.964,70.007 z M176.411,76.622 C183.289,77.567 185.647,84.989 187.932,90.334 C191.424,91.884 195.415,91.795 197.745,95.459 C200.456,97.656 205.5,99.151 207.909,99.139 C202.453,97.872 200.909,104.023 203.747,107.681 C206.484,111.42 204.998,111.406 202.389,113.025 C201.158,119.333 192.285,119.853 186.968,119.334 C182.759,117.275 182.026,121.791 181.273,124.328 C175.316,124.367 180.396,130.231 181.58,132.739 C182.864,135.823 176.309,133.296 176.016,131.294 C170.646,126.304 165.874,120.438 165.152,112.895 C160.504,108.315 149.907,111.688 148.066,103.476 C144.545,95.212 156.063,87.905 162.041,94.627 C163.986,97.38 169.411,100.606 168.7,104.002 C163.564,104.472 164.337,114.582 169.533,110.793 C174.724,104.027 176.781,93.168 170.278,86.522 C166.977,81.903 171.9,77.077 176.411,76.622 L176.411,76.622 z M96.811,77.192 C99.902,79.596 107.31,76.654 106.274,82.975 C105.744,91.072 116.207,94.137 120.95,88.802 C125.072,90.952 123.615,94.579 122.133,97.871 C122.261,103.76 124.318,112.587 129.843,114.737 C127.214,118.269 118.927,117.503 120.906,124.069 C124.175,126.684 125.019,131.482 129.317,133.619 C132.449,137.162 125.396,128.697 122.088,130.158 C116.91,133.592 124.401,139.005 126.688,141.81 C129.929,145.726 135.038,148.838 138.428,151.798 C135.926,153.496 133.091,147.407 130.761,146.409 C128.785,143.91 120.862,140.168 122.35,146.409 C123.543,150.034 126.192,153.882 121.518,155.828 C118.583,160.136 120.221,166.626 125.285,168.139 C128.364,171.124 125.511,176.106 121.386,174.272 C118.455,173.025 112.732,173.427 113.106,176.857 C113.868,172.97 106.697,170.145 107.762,175.499 C106.603,170.92 100.698,173.914 98.869,169.322 C96.737,165.618 92.069,164.531 89.275,167.307 C84.609,156.991 89.39,145.177 96.985,137.78 C103.624,137.09 98.274,130.346 94.269,130.201 C88.919,128.708 82.755,128.768 78.585,125.032 C76.336,125.218 75.607,130.23 76.001,125.514 C79.071,119.659 72.81,113.07 67.02,115.394 C62.122,118.1 63.306,125.683 58.916,128.405 C57.805,122.609 63.344,117.257 66.101,112.152 C64.702,103.752 62.952,93.022 68.992,85.692 C77.023,80.025 88.66,83.05 96.68,77.15 L96.811,77.192 z M429.226,79.47 C434.964,80.696 442.303,80.23 446.355,84.902 C443.739,89.218 440.263,84.455 436.805,84.727 C435.546,80.284 426.864,86.581 428.526,80.39 C428.743,80.1 428.189,78.516 429.226,79.47 L429.226,79.47 z M752.354,85.253 C752.85,88.157 750.266,85.007 752.354,85.253 z M201.64,90.947 C203.911,90.616 205.396,94.963 202.735,92.174 C202.4,91.822 201.785,91.282 201.64,90.947 z M450.951,91.21 C450.258,95.425 454.534,97.592 456.952,99.052 C455.857,104.599 459.829,108.655 462.034,112.807 C459.84,116.86 451.481,110.756 450.644,116.969 C444.501,116.81 435.928,120.738 436.319,127.177 C430.655,129.543 431.826,138.296 432.069,142.598 C425.115,144.467 424.847,152.776 424.008,158.413 C419.015,162.499 414.409,152.584 420.986,150.878 C425.486,146.137 423.362,138.732 420.767,133.88 C423.293,130.699 423.892,126.402 424.008,122.534 C425.862,119.239 433.275,120.712 430.448,114.999 C430.634,112.564 436.145,110.766 435.442,114.429 C437.458,119.46 448.346,116.636 444.203,111.407 C439.902,108.526 433.643,107.052 431.98,101.769 C435.846,101.972 438.021,99.501 441.443,99.754 C442.818,98.242 443.702,94.035 445.43,94.322 C446.43,99.63 451.488,98.811 450.951,91.21 L450.951,91.21 z M306.993,91.385 C310.384,91.481 302.654,92.639 306.993,91.385 z M273.655,94.233 C277.507,93.576 286.37,98.057 280.796,101.33 C278.846,98.213 273.156,96.789 271.859,94.628 C272.407,94.308 273.034,94.264 273.655,94.233 L273.655,94.233 z M132.289,94.846 C136.739,93.401 138.093,98.883 133.997,100.059 C133.736,98.935 130.684,95.003 132.289,94.846 z M319.523,94.846 C321.625,95.016 327.551,96.523 326.401,99.139 C322.891,102.9 328.925,104.133 331.614,103.564 C332.129,106.382 332.464,115.45 327.541,112.326 C324.496,110.334 321.036,112.287 318.341,109.216 C316.708,108.359 319.445,103.557 318.473,101.243 C318.922,99.71 317.673,95.562 319.523,94.846 L319.523,94.846 z M566.605,96.949 C571.076,96.041 573.273,102.03 568.314,102.994 C562.779,105.697 560.581,96.718 566.605,96.949 z M426.728,101.9 C425.637,103.134 418.755,103.091 423.224,102.075 C424.387,101.927 425.555,101.887 426.728,101.9 z M304.246,112.194 C303.438,114.109 299.134,115.337 302.581,112.851 C303.052,112.485 303.647,112.205 304.246,112.194 z M217.372,113.333 C220.851,113.01 219.905,118.729 217.021,115.349 C215.35,114.413 215.649,113.684 217.372,113.333 z M311.519,115.042 C312.181,115.493 310.861,115.507 311.519,115.042 z M152.103,115.874 C155.261,115.754 156.21,120.351 152.103,119.904 C149.047,121.3 147.563,118.43 150.876,116.882 C151.35,116.868 151.576,115.857 152.103,115.874 L152.103,115.874 z M635.31,116.444 C637.287,117.626 634.817,117.445 635.31,116.444 z M572.883,117.582 C575.658,119.536 571.184,121.335 571.043,119.247 C571.48,118.557 572.136,117.898 572.883,117.582 z M409.172,121.832 C409.259,125.184 417.012,123.702 412.852,126.125 C413.959,129.136 406.354,122.97 409.172,121.832 z M574.372,124.986 C574.374,125.312 574.254,124.885 574.372,124.986 z M445.4,127.483 C445.171,130.877 443.719,129.048 445.4,127.483 z M322.255,127.439 C325.644,127.013 329.708,132.669 325.716,133.835 C323.384,132.901 322.659,129.58 322.255,127.439 z M602.846,129.192 C604.434,130.048 600.071,129.907 602.758,129.192 L602.846,129.192 z M411.969,129.805 C413.494,134.382 408.465,132.388 410.962,129.849 C411.371,130.181 412.156,128.837 411.969,129.805 z M596.054,130.111 C598.267,132.2 593.967,136.684 593.032,139.004 C586.615,145.811 586.102,157.103 578.356,162.354 C575.518,164.085 570.879,164.376 573.8,159.638 C574.28,153.463 581.183,151.65 582.474,146.364 C581.885,143.006 580.863,139.154 585.759,138.961 C590.73,137.512 590.984,130.553 596.054,130.111 L596.054,130.111 z M586.153,131.294 C588.984,131.774 583.872,132.971 586.153,131.294 z M735.714,131.689 C738.251,133.217 734.93,133.077 735.714,131.689 z M214.876,132.696 C217.526,134.821 210.687,133.901 214.35,132.784 C214.525,132.763 214.697,132.69 214.876,132.696 z M527.537,135.544 C527.19,135.706 527.19,135.381 527.537,135.544 z M713.723,136.902 C716.554,137.381 711.441,138.579 713.723,136.902 z M264.032,137.515 C268.512,137.198 272.297,139.96 273.802,143.867 C274.273,144.678 269.677,149.07 274.283,150.219 C271.596,155.95 263.296,158.056 258.95,152.804 C258.974,149.995 255.672,150.203 257.461,147.591 C257.352,144.92 252.199,144.83 256.409,142.422 C258.371,139.172 259.832,137.467 264.032,137.515 L264.032,137.515 z M70.927,140.187 C70.965,142.24 68.877,145.062 70.051,141.458 C69.884,141.287 71.276,138.88 70.927,140.187 z M156.265,139.968 C161.324,139.799 164.759,149.356 159.069,150.788 C153.771,150.63 149.89,141.573 156.265,139.968 z M520.751,140.144 C525.883,139.602 530.712,143.652 528.111,149.169 C527.896,154.95 519.619,159.213 514.618,156.967 C509.057,153.829 507.745,147.087 512.866,142.816 C515.021,140.932 517.942,140.271 520.751,140.144 L520.751,140.144 z M364.709,140.231 C366.421,141.739 365.166,143.808 364.709,140.231 z M52.529,141.458 C54.342,142.312 51.713,142.33 52.529,141.458 z M204.105,141.589 C208.558,141.301 212.087,144.355 212.166,148.686 C214.655,151.165 210.18,155.877 207.435,156.265 C198.76,157.8 193.948,142.068 204.105,141.589 L204.105,141.589 z M184.128,144.393 C186.355,143.475 188.844,146.277 185.617,146.583 C181.136,146.208 176.159,144.919 183.295,144.436 C183.573,144.439 183.85,144.387 184.128,144.393 L184.128,144.393 z M145.489,147.416 C147.353,148.705 149.109,152.429 145.927,150.439 C145.413,149.625 145.298,148.114 145.489,147.416 z M650.292,148.16 C651.678,148.037 648.425,150.003 650.292,148.16 z M442.243,150.132 C443.872,150.359 443.969,155.158 442.944,156.528 C439.956,154.447 433.994,154.79 439.703,151.446 C440.474,150.828 441.275,150.301 442.243,150.132 L442.243,150.132 z M491.659,152.716 C491.878,154.512 489.147,153.741 491.659,152.716 z M191.22,152.716 C193.851,153.67 183.518,154.232 188.504,153.329 C189.372,152.946 190.3,152.872 191.22,152.716 z M185.876,154.206 C182.548,154.818 184.9,160.964 180.356,158.894 C177.714,156.311 184.772,154.914 185.876,154.206 z M540.153,155.17 C539.807,155.332 539.807,155.007 540.153,155.17 z M623.783,155.126 C633.679,154.404 639.558,165.09 643.628,172.474 C643.92,175.939 641.035,179.233 640.124,182.681 C635.268,195.057 617.243,198.128 608.669,188.114 C597.056,178.366 604.385,153.722 620.892,155.258 C621.854,155.187 622.818,155.141 623.783,155.126 L623.783,155.126 z M368.335,155.871 C368.232,156.326 368.232,155.415 368.335,155.871 z M762.172,159.55 C762.668,162.455 760.084,159.305 762.172,159.55 z M533.234,159.638 C538.266,160.82 529.79,168.912 529.51,162.266 C529.259,160.208 531.647,159.693 533.234,159.638 z M356.861,162.573 C359.094,162.243 361.507,165.345 357.913,164.982 C353.835,166.184 353.513,163.101 356.861,162.573 z M785.352,164.107 C786.013,164.559 784.693,164.572 785.352,164.107 z M732.957,164.939 C736.002,166.199 730.144,169.354 731.643,165.377 C731.962,165.001 732.505,165.009 732.957,164.939 z M255.577,167.217 C255.645,169.31 254.655,166.086 255.577,167.217 z M365.406,168.093 C368.313,168.796 368.1,172.124 365.801,169.845 C365.598,169.676 364.463,166.91 365.406,168.093 z M43.682,169.145 C50.127,170.592 46.04,181.627 40.046,176.855 C37.997,173.881 39.802,169.272 43.682,169.145 z M321.466,170.547 C324.152,172.948 318.556,174.724 319.758,171.379 C320.081,170.824 320.853,170.561 321.466,170.547 z M168.531,173.306 C170.149,173.938 173.517,179.695 170.239,176.504 C169.777,175.943 167.62,172.775 168.531,173.306 z M143.561,174.095 C145.589,174.383 147.924,177.552 144.7,175.497 C144.603,175.394 142.304,173.491 143.561,174.095 z M586.984,174.752 C588.21,174.863 585.776,174.864 586.984,174.752 z M243.569,178.3 C243.467,178.756 243.467,177.845 243.569,178.3 z M347.262,178.257 C347.263,178.583 347.143,178.156 347.262,178.257 z M356.373,180.36 C358.548,181.609 355.422,185.116 355.672,181.455 C355.765,181.053 355.916,180.486 356.373,180.36 z M237.213,182.637 C242.108,183.129 238.103,183.739 237.213,182.637 z M663.207,183.163 C666.906,183.201 667.538,188.653 663.602,188.551 C660.915,188.236 661.302,184.349 663.207,183.163 z M133.306,185.354 C140.318,184.369 145.155,194.652 141.279,199.46 C137.636,203.252 145.974,202.297 146.711,205.549 C151.855,209.145 151.411,217.199 145.747,219.524 C139.298,218.053 135.687,211.848 134.707,205.812 C130.383,202.701 125.814,198.817 125.551,192.845 C125.214,188.505 129.238,185.409 133.306,185.354 L133.306,185.354 z M335.173,186.274 C339.955,185.847 341.789,189.51 342.533,193.677 C338.042,193.367 332.51,191.989 334.779,186.186 L335.173,186.274 z M565.953,187.369 C570.396,188.452 562.349,189.536 565.34,187.456 C565.54,187.412 565.748,187.373 565.953,187.369 z M646.691,191.574 C649.013,193.311 642.596,193.447 646.56,191.617 C646.73,191.73 646.58,191.521 646.691,191.574 z M722.217,193.546 C724.194,194.728 721.725,194.548 722.217,193.546 z M194.329,194.465 C201.34,193.539 202.652,205.856 195.249,203.796 C190.28,202.432 187.768,195.433 194.329,194.465 z M752.05,194.553 C754.282,199.621 745.732,196.565 752.05,194.553 z M154.374,195.78 C157.206,196.259 152.092,197.457 154.374,195.78 z M769.617,197.269 C775.585,197.399 772.761,205.941 768.084,203.49 C764.072,201.908 766.24,197.701 769.617,197.269 z M648.667,197.62 C655.8,198.223 650.584,207.167 646.038,203.709 C645.552,201.587 645.684,197.602 648.667,197.62 z M619.272,199.372 C621.995,200.79 616.401,205.066 618.176,200.686 C618.418,200.144 618.702,199.572 619.272,199.372 z M351.162,200.905 C351.951,202.875 353.061,207.86 350.461,204.409 C350.07,203.288 350.768,201.284 351.162,200.905 z M550.577,202.132 C550.476,202.588 550.476,201.676 550.577,202.132 z M157.704,202.132 C161.468,202.922 152.871,205.73 156.127,202.57 C156.603,202.287 157.133,202.143 157.704,202.132 z M51.033,203.008 C53.161,204.395 46.519,204.713 50.244,203.183 C50.529,203.291 50.762,202.992 51.033,203.008 z M62.905,203.008 C66.384,202.889 62.366,205.182 62.774,203.052 L62.861,203.008 L62.905,203.008 z M802.869,203.315 C802.617,205.395 800.724,203.547 802.869,203.315 z M210.667,203.884 C211.829,204.355 209.348,204.451 210.667,203.884 z M603.188,208.09 C604.35,208.56 601.868,208.657 603.188,208.09 z M537.913,209.097 C537.915,209.423 537.794,208.997 537.913,209.097 z M294.429,210.193 C298.7,209.776 299.035,216.555 294.78,216.194 C292.313,214.53 288.797,210.255 294.429,210.193 z M705.566,211.244 C705.22,211.407 705.22,211.082 705.566,211.244 z M682.261,211.42 C682.757,214.324 680.172,211.173 682.261,211.42 z M237.872,211.726 C244.401,212.486 250.989,218.936 251.672,225.306 C248.92,227.876 245.924,232.339 250.27,235.207 C254.98,239.564 264.424,242.602 267.092,247.255 C257.463,243.167 250.725,233.314 239.536,232.798 C232.044,230.992 224.106,220.392 232.308,214.223 C233.822,212.854 235.738,211.817 237.872,211.726 L237.872,211.726 z M160.901,214.617 C167.495,213.889 173.323,221.845 170.671,227.672 C165.142,236.588 149.193,223.502 157.616,216.37 C158.496,215.465 159.607,214.696 160.901,214.617 L160.901,214.617 z M546.94,218.954 C549.437,220.475 546.104,223.606 545.188,219.743 C545.714,219.341 546.263,219.008 546.94,218.954 z M62.769,221.452 C71.574,220.78 76.701,232.501 69.998,238.405 C64.212,241.531 56.972,235.941 56.199,230.257 C57.687,226.637 57.39,221.243 62.769,221.452 L62.769,221.452 z M200.856,225.218 C201.977,226.364 198.288,226.658 200.856,225.218 z M626.274,227.366 C626.172,227.821 626.172,226.91 626.274,227.366 z M606.605,228.548 C606.353,230.629 604.459,228.78 606.605,228.548 z M102.637,228.592 C103.298,229.044 101.979,229.058 102.637,228.592 z M570.858,230.826 C573.717,232.415 568.173,232.951 570.858,230.826 z M795.286,230.87 C794.939,231.033 794.939,230.708 795.286,230.87 z M295.217,231.176 C298.782,232.127 292.456,232.858 295.217,231.176 z M185.215,231.527 C189.394,231.914 185.441,233.041 185.215,231.527 z M322.287,233.367 C323.461,236.564 330.204,236.642 329.954,239.894 C327.701,242.918 323.166,249.711 320.36,243.048 C316.1,239.053 317.987,236.15 322.287,233.367 L322.287,233.367 z M706.131,235.032 C711.507,234.467 705.576,242.545 704.247,237.354 C702.931,235.521 704.563,235.215 706.131,235.032 z M784.241,235.076 C787.867,234.038 787.252,238.7 784.766,238.581 C783.626,237.564 780.695,234.975 784.241,235.076 z M163.876,236.477 C166.69,236.76 165.765,240.352 163.307,237.397 C162.456,236.81 163.239,236.582 163.876,236.477 z M775.53,239.238 C778.389,240.826 772.845,241.362 775.53,239.238 z M681.039,239.675 C684.96,242.017 677.505,245.451 679.155,240.902 C679.593,240.245 680.233,239.751 681.039,239.675 z M666.714,240.99 C670.279,241.94 663.953,242.672 666.714,240.99 z M275.33,241.428 C278.766,242.741 277.367,248.75 281.156,250.627 C278.524,253.268 271.898,251.587 272.964,246.334 C273.086,244.526 273.174,241.813 275.33,241.428 L275.33,241.428 z M304.813,243.136 C309.873,243.769 315.517,249.762 309.588,253.694 C307.241,256.494 306.255,255.862 305.031,252.862 C303.053,250.685 299.832,248.66 303.76,246.422 C304.427,245.465 304.704,244.126 304.813,243.136 L304.813,243.136 z M761.509,243.443 C764.367,245.031 758.823,245.567 761.509,243.443 z M26.804,244.845 C29.636,245.324 24.523,246.522 26.804,244.845 z M641.437,245.02 C645.808,244.435 644.654,251.77 642.795,253.081 C638.682,251.902 634.234,245.619 641.437,245.02 z M251.017,247.649 C254.61,248.613 252.284,254.205 249.484,251.022 C248.928,249.772 249.638,247.88 251.017,247.649 z M582.778,248.349 C587.409,251.455 578.156,251.318 582.778,248.349 z M602.579,249.796 C606.065,248.832 609.636,252.344 604.551,253.388 C600.751,253.723 594.065,258.257 591.627,254.308 C594.007,250.909 598.524,249.966 602.579,249.796 L602.579,249.796 z M629.039,250.453 C630.517,250.101 635.403,251.185 631.273,251.548 C630.065,252.139 621.908,251.457 626.629,250.584 C627.43,250.503 628.235,250.463 629.039,250.453 L629.039,250.453 z M136.587,252.03 C143.133,251.772 141.937,261.029 147.145,263.376 C148.842,266.848 145.468,272.339 150.255,274.723 C151.522,276.762 145.225,276.55 145.611,279.848 C146.752,284.448 139.113,281.959 140.792,286.989 C142.514,288.702 133.885,297.328 130.89,294.642 C120.071,287.97 112.688,275.994 110.039,263.464 C116.301,255.773 127.216,253.32 136.587,252.03 z M653.174,256.367 C658.33,256.806 654.2,266.396 650.37,261.843 C647.928,259.425 650.633,256.9 653.174,256.367 z M684.935,257.812 C688.5,258.762 682.174,259.494 684.935,257.812 z M299.955,258.406 C304.33,259.564 307.307,267.927 302.89,268.92 C301.219,267.075 297.72,266.918 298.246,263.27 C298.101,261.605 298.407,259.333 299.955,258.406 L299.955,258.406 z M63.219,262.568 C64.353,270.336 67.927,280.826 68.038,287.012 C63.45,279.352 64.338,270.04 63,261.385 L63.219,262.568 z M241.339,261.648 C247.206,260.627 250.61,271.086 243.704,271.374 C239.222,270.786 234.831,262.675 241.339,261.648 z M80.209,267.256 C83.067,268.843 77.524,269.38 80.209,267.256 z M303.329,270.629 C305.835,270.774 307.659,272.28 305.694,274.703 C302.286,278.344 301.884,269.812 303.329,270.629 z M580.149,270.366 C583.761,272.01 578.901,274.48 578.966,271.286 C579.173,270.802 579.647,270.47 580.149,270.366 z M572.833,274.177 C571.652,277.272 575.716,284.44 569.592,282.763 C563.01,284.533 566.112,274.23 570.775,274.308 C571.214,274.384 573.116,273.276 572.833,274.177 L572.833,274.177 z M605.164,274.615 C607.635,277.423 605.314,277.886 604.2,275.316 C604.462,275.085 604.843,274.373 605.164,274.615 z M79.945,275.885 C83.055,275.654 82.774,280.355 79.901,277.725 C79.067,276.894 77.878,275.894 79.945,275.885 z M586.977,277.069 C591.42,278.151 583.373,279.236 586.364,277.156 C586.563,277.112 586.772,277.073 586.977,277.069 z M255.259,280.354 C257.003,282.301 255.773,283.354 255.259,280.354 z M638.448,285.611 C643.815,285.898 641.601,297.019 636.389,293.014 C631.749,290.801 635.162,286.642 638.448,285.611 z M219.814,286.006 C225.007,286.154 231.669,286.952 232.606,293.015 C234.29,297.485 241.048,301.43 239.44,306.376 C232.614,309.375 223.275,310.786 216.396,307.428 C210.697,302.449 209.416,293.514 215.432,288.196 C216.57,286.787 217.992,285.927 219.814,286.006 L219.814,286.006 z M24.126,291.394 C28.584,291.891 24.349,299.553 21.717,295.161 C19.552,293.731 22.663,291.599 24.126,291.394 z M625.658,292.533 C625.312,292.695 625.312,292.37 625.658,292.533 z M316.518,297.086 C319.222,298.182 317.241,300.912 315.16,298.05 C315.483,297.485 315.937,297.254 316.518,297.086 z M646.04,299.802 C649.652,301.446 644.792,303.916 644.857,300.722 C645.064,300.239 645.538,299.906 646.04,299.802 z M634.694,301.642 C634.592,302.097 634.592,301.186 634.694,301.642 z M173.961,303.701 C178.455,303.028 177.866,309.981 173.873,307.381 C173.248,306.347 173.168,304.614 173.961,303.701 z M18.357,307.162 C20.482,308.315 17.038,309.788 18.357,307.162 z M156.221,309.878 C162.558,311.404 173.723,312.376 175.015,320.349 C173.828,327.328 163.893,329.638 158.281,328.059 C154.904,323.617 143.616,323.582 145.752,316.231 C149.806,315.317 152.171,310.531 156.221,309.878 L156.221,309.878 z M279.805,311.061 C283.37,312.01 277.045,312.743 279.805,311.061 z M66.722,312.463 C70.287,313.413 63.961,314.144 66.722,312.463 z M80.391,316.318 C82.148,319.246 76.19,319.307 79.296,316.581 C79.649,316.422 80,316.313 80.391,316.318 z M278.488,316.625 C281.134,317.388 275.476,319.607 278.093,316.844 C278.187,316.713 278.361,316.673 278.488,316.625 z M610.335,320.655 C614.944,321.98 613.719,330.785 608.495,328.453 C602.994,326.811 605.329,320.811 610.335,320.655 z M213.477,326.218 C217.922,326.404 211.346,333.548 210.673,328.058 C211.237,327.087 212.34,326.328 213.477,326.218 z M129.277,327.533 C132.136,329.121 126.592,329.657 129.277,327.533 z M196.041,327.708 C199.222,327.544 198.857,333.326 194.902,331.826 C191.243,332.553 193.87,327.38 196.041,327.708 z M139.441,331.125 C142.53,331.985 136.228,333.35 139.441,331.125 z M110.921,335.068 C111.499,337.571 109.17,337.509 110.921,335.068 z M651.161,336.076 C657.381,338.504 660.996,344.812 658.564,351.409 C657.759,356.326 651.021,351.003 648.663,349.963 C645.213,347.939 640.211,343.392 645.991,340.5 C647.592,338.904 649.167,336.995 651.161,336.076 L651.161,336.076 z M251.238,337.346 C254.097,338.934 248.553,339.47 251.238,337.346 z M631.097,340.281 C636.954,339.571 640.718,347.824 634.822,350.707 C628.295,356.838 620.954,341.918 629.871,340.456 C630.273,340.389 630.683,340.272 631.097,340.281 L631.097,340.281 z M606.126,340.675 C610.949,341.716 620.962,342.253 618.831,349.699 C617.393,353.365 624.352,355.602 621.24,358.461 C615.788,358.732 614.856,351.164 610.945,348.604 C611.776,344.095 602.282,344.341 606.126,340.675 L606.126,340.675 z M247.028,343.654 C252.156,344.632 241.993,344.577 247.028,343.654 z M93.784,344.487 C97.793,344.728 94.288,347.194 93.784,344.487 z M143.813,348.911 C147.378,349.861 141.052,350.592 143.813,348.911 z M689.535,352.854 C695.556,356.09 703.456,355.867 707.977,361.659 C710.081,363.217 714.77,360.299 715.468,363.236 C711.89,364.551 706.743,364.077 705.83,369.063 C702.501,376.031 694.231,379.836 687.212,380.541 C684.024,377.632 676.349,379.958 674.815,375.897 C675.292,372.302 670.669,370.451 673.631,366.786 C676.043,360.729 680.959,355.343 687.607,354.301 C688.274,353.93 688.941,352.953 689.535,352.854 L689.535,352.854 z M586.101,355.219 C596.608,355.072 602.043,368.667 596.44,376.817 C595.797,381.096 590.787,380.747 589.299,383.563 C581.401,381.224 571.528,376.527 571.075,367.31 C573.625,362.82 574.073,355.085 581.106,355.394 C582.771,355.298 584.435,355.239 586.101,355.219 L586.101,355.219 z M636.217,358.374 C640.395,360.23 631.944,365.28 633.895,359.075 C634.3,358.386 635.454,358.477 636.217,358.374 z M67.806,361.484 C65.277,363.463 65.652,361.782 67.806,361.484 z M829.675,361.747 C835.872,362.032 833.566,374.248 827.486,370.378 C823.761,367.906 824.894,362.009 829.675,361.747 z M215.482,361.879 C215.483,362.205 215.363,361.778 215.482,361.879 z M609.138,362.623 C607.839,363.992 604.303,364.005 609.138,362.623 z M53.518,363.105 C52.482,364.97 46.013,366.44 50.714,363.981 C51.28,363.774 53.55,362.586 53.518,363.105 z M796.33,364.638 C799.047,367.152 791.331,367.184 795.892,364.77 C796.06,364.792 796.198,364.678 796.33,364.638 z M736.839,365.733 C742.773,364.255 744.757,372.301 740.037,374.758 C735.694,379.879 727.921,370.644 733.422,366.828 C734.364,366.04 735.633,365.744 736.839,365.733 L736.839,365.733 z M127.818,372.392 C131.425,372.435 134.079,378.5 128.826,378.438 C125.832,380.01 120.53,377.74 123.876,374.32 C124.875,373.126 126.245,372.384 127.818,372.392 z M762.558,372.48 C767.198,374.069 775.577,380.663 769.655,385.491 C765.197,390.802 758.897,385.417 755.418,381.855 C751.816,382.346 745.935,380.946 745.518,377.036 C747.294,372.492 751.977,371.417 755.9,374.144 C758.661,375.133 760.514,373.745 762.558,372.48 L762.558,372.48 z M610.019,376.598 C614.73,376.952 613.015,384.496 608.924,381.723 C607.528,380.394 607.87,376.881 610.019,376.598 z M792.477,376.861 C796.967,377.114 797.604,385.895 794.843,387.681 C790.911,386.757 788.252,378.353 792.477,376.861 z M570.149,377.298 C570.151,377.626 570.03,377.198 570.149,377.298 z M713.573,378.526 C717.583,378.442 715.06,383.377 712.39,381.767 C711.644,380.523 711.633,378.478 713.573,378.526 z M119.753,380.891 C123.379,381.329 118.33,386.972 117.913,382.512 C117.171,381.293 118.839,380.732 119.753,380.891 z M604.011,384.615 C607.175,385.039 607.365,391.066 606.727,393.026 C602.591,394.865 594.787,388.384 600.725,385.623 C601.689,384.999 602.879,384.758 604.011,384.615 z M241.677,385.096 C246.245,385.396 245.294,392.051 240.625,388.689 C238.417,387.561 239.582,385.037 241.677,385.096 z M155.422,385.228 C158.901,385.109 154.882,387.403 155.291,385.272 L155.378,385.228 L155.422,385.228 z M248.123,394.998 C250.282,394.497 252.921,397.104 249.306,397.451 C247.416,398.486 247.217,395.668 248.123,394.998 z M273.356,395.392 C282.537,398.785 290.61,410.577 284.703,420.143 C282.649,426.536 273.781,424.796 269.019,422.947 C261.809,418.579 256.887,409.422 261.922,401.612 C264.147,397.782 268.745,395.812 273.356,395.392 L273.356,395.392 z M750.298,396.224 C753.155,397.812 747.611,398.348 750.298,396.224 z M575.112,397.626 C582.746,397.319 585.175,411.049 593.293,405.774 C597.023,400.782 603.211,405.624 606.216,409.323 C609.107,413.821 605.872,419.684 605.208,423.999 C602.519,426.047 599.769,419.379 596.184,420.275 C591.555,421.425 590.579,414.703 586.02,416.726 C578.498,416.196 566.826,410.817 569.286,401.7 C570.403,399.514 572.606,397.839 575.112,397.626 L575.112,397.626 z M715.033,397.845 C720.098,396.64 718.374,406.025 713.937,402.533 C712.733,401.189 712.953,397.991 715.033,397.845 z M114.732,399.335 C118.344,400.979 113.484,403.449 113.549,400.255 C113.756,399.771 114.23,399.439 114.732,399.335 z M234.632,402.05 C239.966,404.299 245.987,413.65 238.487,417.208 C231.209,422.368 223.558,406.598 231.872,403.145 C232.76,402.747 233.645,401.994 234.632,402.05 L234.632,402.05 z M182.413,402.05 C187.413,404.383 179.49,405.566 182.413,402.05 z M314.846,409.191 C319.241,410.553 311.735,413.885 314.846,409.191 z M560.344,411.645 C564.042,412.244 558.834,414.282 559.161,411.776 C559.559,411.779 559.944,411.619 560.344,411.645 z M789.592,418.829 C789.002,420.635 788.827,419.074 789.592,418.829 z M614.406,422.553 C615.568,423.023 613.087,423.12 614.406,422.553 z M260.61,422.991 C264.62,423.232 261.115,425.699 260.61,422.991 z M330.923,424.173 C330.81,425.775 330.524,424.979 330.923,424.173 z M314.714,425.839 C319.056,426.86 321.779,432.197 327.112,431.359 C331.121,432.161 337.31,430.389 339.596,429.169 C335.478,436.716 324.401,429.787 318.569,435.478 C314.959,440.37 306.665,437.403 305.426,432.499 C307.165,429.123 311.302,427.005 314.714,425.839 z M164.886,428.467 C171.853,427.692 174.308,437.564 168.172,440.471 C162.357,446.601 153.475,434.783 160.287,430.131 C161.604,429.029 163.187,428.536 164.886,428.467 L164.886,428.467 z M360.755,431.271 C362.512,434.199 356.554,434.26 359.659,431.534 C360.013,431.375 360.363,431.266 360.755,431.271 z M624.216,434.819 C626.919,434.446 631.952,438.512 626.801,438.368 C624.31,440.389 620.496,442.798 619.53,437.93 C619.661,435.848 622.355,434.857 624.216,434.819 L624.216,434.819 z M351.863,436.177 C356.39,435.232 356.459,440.61 352.914,441.959 C349.378,444.015 346.174,435.647 351.863,436.177 z M576.42,438.674 C581.113,439.553 576.172,449.64 573.354,442.836 C572.511,441.102 574.817,438.857 576.42,438.674 z M331.929,439.682 C338.139,442.078 337.46,449.921 333.9,454.401 C330.895,461.266 318.659,461.261 315.414,455.146 C317.095,449.897 317.442,441.096 325.184,442.091 C327.607,441.761 329.629,440.26 331.929,439.682 L331.929,439.682 z M517.675,439.682 C522.03,440.014 522.796,439.004 519.252,440.646 C519.472,441.522 515.047,438.884 517.675,439.682 z M586.147,439.682 C589.443,442.536 583.059,443.338 585.359,439.857 C585.613,439.78 585.882,439.696 586.147,439.682 z M600.516,442.223 C605.651,443.161 607.731,447.796 609.628,451.861 C613.292,453.534 606.445,455.154 607.963,458.3 C606.698,460.97 600.13,461.525 604.546,465.31 C611.297,469.166 612.749,475.287 611.163,482.74 C611.051,490.783 611.534,502.85 601.304,504.474 C598.214,504.922 598.428,508.818 596.923,509.906 C592.702,513.143 591.107,505.113 589.738,502.021 C589.023,499.671 587.997,499.464 590.264,497.727 C591.779,494.326 589.446,490.89 591.928,487.914 C593.102,480.887 590.936,472.228 598.028,467.663 C603.786,462.556 592.132,460.169 592.191,454.182 C590.611,448.607 594.783,442.593 600.516,442.223 L600.516,442.223 z M556.356,446.735 C559.47,446.489 559.523,451.619 556.663,448.575 C556.435,448.083 556.031,447.138 556.356,446.735 z M623.427,448.838 C622.517,449.755 622.056,449.126 623.427,448.838 z M647.872,450.152 C649.84,451.46 646.249,452.785 647.872,450.152 z M542.467,454.402 C545.25,457.966 543.728,465.151 541.81,469.297 C540.476,471.001 536.23,469.955 535.414,469.385 C536.347,464.519 537.861,456.914 542.467,454.402 L542.467,454.402 z M506.368,456.505 C508.955,457.161 503.395,462.206 505.579,458.257 C505.67,457.605 505.431,456.538 506.368,456.505 z M520.387,456.505 C523.245,458.092 517.701,458.629 520.387,456.505 z M569.058,457.906 C571.354,459.271 567.793,466.348 571.95,468.07 C574.388,470.684 572.387,474.931 569.014,472.626 C565.499,470.968 559.727,466.866 560.783,463.552 C563.158,461.266 565.742,458.657 569.058,457.906 L569.058,457.906 z M575.673,457.906 C579.902,458.218 572.444,463.056 574.622,458.213 C574.919,458.001 575.309,457.92 575.673,457.906 z M512.896,457.95 C516.01,457.705 516.062,462.834 513.203,459.79 C512.973,459.298 512.569,458.353 512.896,457.95 z M376.693,458.432 C376.441,460.512 374.547,458.664 376.693,458.432 z M391.149,460.885 C395.091,460.948 390.333,465.563 390.668,462.068 C390.81,461.743 390.556,460.798 391.149,460.885 z M271.817,462.244 C275.827,462.484 272.322,464.951 271.817,462.244 z M90.857,462.312 C93.67,464.499 87.021,464.393 90.857,462.312 z M656.548,463.627 C665.866,462.864 663.892,479.231 654.928,477.426 C644.819,477.443 648.762,463.194 656.548,463.627 z M513.821,464.985 C514.973,467.594 511.152,468.385 512.2,465.51 C512.633,465.196 513.223,465.041 513.821,464.985 z M367.944,467 C370.692,469.614 371.083,473.125 367.506,475.148 C365.972,479.497 363.291,482.78 358.306,483.559 C349.683,487.588 348.39,499.1 340.74,504.586 C338.703,507.403 333.932,510.435 332.592,505.331 C332.558,502.673 332.526,499.356 328.474,500.03 C322.983,500.298 329.182,494.219 330.534,498.234 C331.658,503.748 336.907,497.546 338.463,495.342 C341.686,492.143 350.043,489.928 347.357,484.039 C348.287,483.968 352.364,480.541 351.343,477.337 C350.87,474.661 346.655,475.034 350.642,472.343 C354.606,467.508 360.741,466.011 366.632,465.071 L367.421,466.229 L367.944,467 z M684.367,465.466 C686.345,466.649 683.876,466.468 684.367,465.466 z M112.539,465.992 C114.365,468.492 110.421,468.362 112.539,465.992 z M720.948,466.605 C722.706,466.607 729.069,467.954 727.694,469.19 C726.366,469.687 719.002,467.616 720.948,466.605 z M500.858,467.394 C502.021,467.864 499.539,467.962 500.858,467.394 z M382.534,467.832 C386.326,468.871 382.945,474.211 381.35,470.855 C381.46,469.901 381.585,468.157 382.534,467.832 z M723.841,473.527 C728.027,473.177 731.933,479.676 729.711,482.552 C725.483,484.608 715.991,481.472 719.854,475.937 C720.681,474.674 722.194,473.644 723.841,473.527 L723.841,473.527 z M495.29,474.754 C494.943,474.917 494.943,474.591 495.29,474.754 z M462.478,475.411 C465.561,476.683 460.736,480.099 460.945,476.638 C461.157,475.981 461.794,475.483 462.478,475.411 z M506.987,477.513 C511.295,478.474 512.627,485.042 515.837,486.275 C514.559,490.938 519.272,488.878 521.487,487.94 C525.103,489.743 523.148,497.872 527.971,497.49 C524.533,499.357 525.742,503.794 527.751,504.631 C524.826,506.763 524.522,511.16 520.348,511.772 C516.488,514.396 517.664,521.309 516.406,523.776 C513.121,521.302 504.224,515.213 502.169,521.804 C503.196,525.08 508.606,526.043 507.031,530.654 C506.289,535.152 502.006,527.673 499.321,529.296 C496.217,528.296 487.905,529.545 488.018,525.091 C492.289,525.697 497.399,524.285 495.772,518.738 C494.754,512.874 487.758,508.957 490.778,502.266 C491.396,495.564 498.33,494.478 502.694,498.192 C509.233,496.593 511.069,486.917 509.66,481.238 C509.058,480.149 503.073,478.364 506.987,477.513 L506.987,477.513 z M476.847,477.557 C479.653,478.516 482.004,485.373 477.636,484.786 C475.623,483.277 475.097,479.32 476.847,477.557 z M543.348,477.864 C547.743,479.226 540.238,482.558 543.348,477.864 z M567.574,480.361 C571.615,481.468 574.614,485.858 579.358,486.188 C585.932,485.954 580.817,495.506 585.667,498.629 C581.229,497.938 582.698,503.819 582.294,505.332 C580.758,502.98 574.841,500.101 575.941,505.288 C574.534,502.649 569.948,505.306 569.282,501.082 C566.992,498.527 564.301,502.552 563.368,499.067 C558.166,499.7 560.031,508.054 554.3,508.923 C550.909,509.62 548.8,517.412 546.021,513.129 C540.851,513.599 537.176,506.38 539.494,502.309 C542.973,500.941 551.437,501.655 548.431,495.519 C544.058,491.961 552.001,487.483 555.484,487.984 C561.29,490.121 559.55,481.74 564.596,481.106 C565.521,480.668 566.547,480.431 567.574,480.361 L567.574,480.361 z M325.579,480.537 C329.558,479.417 332.266,484.485 328.251,486.363 C323.693,486.81 323.23,495.388 318.657,493.635 C315.453,491.131 318.271,489.233 321.462,489.998 C326.944,489.245 320.662,481.093 325.579,480.537 L325.579,480.537 z M520.526,481.763 C522.672,482.749 517.905,482.129 520.526,481.763 z M709.38,483.954 C714.906,482.803 719.117,491.39 712.446,492.934 C708.843,494.035 703.251,490.458 703.904,486.801 C705.408,485.34 707.185,483.976 709.38,483.954 L709.38,483.954 z M379.289,485.968 C381.187,489.669 373.259,492.128 375.828,487.458 C376.72,486.524 377.996,485.967 379.289,485.968 z M756.04,486.757 C757.957,488.42 751.467,489.914 755.164,487.195 C755.437,487.032 755.704,486.779 756.04,486.757 z M235.951,487.371 C235.605,487.533 235.605,487.208 235.951,487.371 z M723.358,487.764 C724.442,488.893 722.904,487.694 723.358,487.764 z M449.034,490.174 C448.688,490.337 448.688,490.011 449.034,490.174 z M284.23,491.532 C287.393,492.818 280.239,492.744 284.055,491.532 L284.23,491.532 z M676.621,491.839 C681.425,492.988 671.872,498.347 675.525,493.416 C675.897,492.906 676.022,492.038 676.621,491.839 z M744.961,491.926 C748.231,492.308 748.75,496.994 744.698,495.606 C743.554,494.816 743.658,492.618 744.961,491.926 z M629.348,491.97 C635.314,492.309 632.662,501.013 627.815,498.323 C627.826,496.485 627.492,492.831 629.348,491.97 z M233.101,492.934 C234.22,494.08 230.532,494.374 233.101,492.934 z M448.283,494.818 C451.447,497.445 443.561,496.764 447.012,495.081 C447.408,494.964 447.84,494.725 448.283,494.818 z M690.718,495.869 C696.713,495.02 698.693,507.091 692.12,505.025 C688.395,503.46 684.46,497.985 690.016,496 C690.265,496.052 690.477,495.842 690.718,495.869 L690.718,495.869 z M483.462,500.163 C486.941,500.044 482.923,502.337 483.33,500.207 L483.418,500.163 L483.462,500.163 z M368.95,501.345 C372.206,503.394 366.789,502.703 368.95,501.345 z M718.623,501.74 C722.525,501.762 726.412,511.251 720.2,509.713 C716.161,509.163 710.611,503.336 718.623,501.74 z M474.218,502.44 C475.38,502.911 472.898,503.007 474.218,502.44 z M452.094,504.368 C453.578,506.051 451.129,509.878 449.861,506.121 C448.201,503.651 450.717,505.142 452.094,504.368 z M479.868,505.55 C482.554,507.951 476.958,509.727 478.16,506.383 C478.482,505.829 479.255,505.565 479.868,505.55 z M576.158,505.813 C576.708,508.712 582.879,512.287 580.188,514.882 C576.527,514.989 573.716,510.374 576.42,507.479 C576.47,506.935 576.256,506.138 576.158,505.813 L576.158,505.813 z M627.677,506.208 C629.682,507.912 626.132,513.87 625.749,509.932 C626.147,508.709 626.833,506.871 627.677,506.208 z M531.868,509.055 C535.069,510.932 534.825,519.21 529.985,515.714 C523.734,514.172 529.183,510.882 531.868,509.055 z M643.531,510.238 C647.188,510.364 651.392,515.599 650.015,518.912 C646.339,521.59 644.093,526.426 644.67,530.433 C641.653,531.454 646.592,527.282 643.268,525.877 C639.499,522.97 633.953,520.494 636.653,514.662 C637.394,511.779 640.891,510.617 643.531,510.238 L643.531,510.238 z M742.585,510.458 C747.217,513.563 737.964,513.425 742.585,510.458 z M708.108,512.56 C712.914,512.616 711.809,519.029 706.968,516.502 C705.721,515.46 705.434,511.837 708.108,512.56 z M355.845,514.488 C359.574,516.589 350.851,517.856 354.443,515.013 C354.86,514.725 355.349,514.548 355.845,514.488 z M611.637,516.809 C611.291,516.972 611.291,516.647 611.637,516.809 z M694.303,516.765 C698.642,516.516 694.839,522.021 692.157,518.911 C689.226,517.663 693.006,516.731 694.303,516.765 z M661.841,519.569 C665.82,519.952 666.487,526.453 661.403,525.22 C656.151,525.692 657.04,521.283 661.841,519.569 z M550.703,519.876 C553.44,520.522 549.91,526.505 549.915,521.804 C549.978,521.116 550.104,520.261 550.703,519.876 z M625.615,520.665 C626.777,521.134 624.296,521.232 625.615,520.665 z M330.607,521.366 C333.649,524.544 329.439,524.771 330.607,521.366 z M345.371,522.373 C349.795,523.393 343.324,531.577 343.794,525.046 C343.741,523.98 343.983,522.337 345.371,522.373 z M524.55,525.002 C526.946,529.145 518.779,531.096 523.192,534.946 C526.096,540.554 534.029,539.639 537.429,544.101 C539.392,548.394 533.34,552.901 538.086,556.368 C541.68,558.298 543.463,562.514 539.532,565.129 C532.303,570.584 540.395,570.483 544.044,572.62 C546.129,576.465 544.793,580.526 539.839,578.271 C536.983,577.98 533.791,571.823 532.523,577.22 C532.192,578.578 532.971,586.687 530.771,584.667 C530.244,578.044 523.094,577.114 517.76,578.884 C515.101,579.543 513.371,582.539 512.239,578.14 C509.123,573.829 509.064,568.133 513.028,564.691 C514.138,559.68 514.167,554.312 518.635,550.847 C522.179,545.606 514.958,540.513 510.224,540.552 C514.548,538.67 510.548,530.517 516.357,530.082 C519.643,531.184 523.628,521.418 524.55,525.002 L524.55,525.002 z M714.238,524.476 C718.14,525.593 714.194,530.618 713.843,525.789 C713.892,525.375 713.955,524.71 714.238,524.476 z M430.756,524.519 C433.391,525.807 432.787,530.822 429.267,528.813 C426.955,529.117 427.317,534.667 425.017,530.784 C423.179,527.698 424.937,525.777 428.215,526.053 C429.202,525.795 429.996,525.096 430.756,524.519 L430.756,524.519 z M764.308,527.148 C764.969,527.6 763.649,527.614 764.308,527.148 z M199.967,527.98 C204.058,528.289 202.794,536.897 199.529,531.967 C198.567,530.971 197.961,527.974 199.967,527.98 z M566.777,528.068 C570.239,528.34 567.75,534.069 566.032,530.084 C565.775,529.33 565.841,528.199 566.777,528.068 z M310.589,528.331 C314.822,533.232 306.941,532.698 310.589,528.331 z M574.929,528.9 C575.591,529.931 578.505,537.712 576.156,533.413 C575.483,532.508 574.31,528.015 574.929,528.9 z M452.575,528.593 C456.876,528.378 455.874,532.81 456.649,535.296 C459.999,537.398 466.166,535.307 466.725,541.078 C470.306,547.945 460.144,543.492 456.123,543.4 C454.066,542.163 447.777,541.397 450.559,545.328 C453.217,547.072 452.561,550.144 449.332,548.92 C444.922,547.427 440.229,540.866 445.915,537.836 C451.658,537.826 447.607,529.201 452.575,528.593 L452.575,528.593 z M703.117,529.163 C706.425,528.741 712.999,534.812 707.542,536.173 C702.316,538.82 697.668,532.728 702.504,529.295 C702.708,529.257 702.907,529.156 703.117,529.163 L703.117,529.163 z M655.454,529.469 C657.112,532.641 652.688,533.526 655.454,529.469 z M741.318,532.186 C744.853,533.223 740.371,537.143 740.091,533.325 C740.268,532.726 740.703,532.282 741.318,532.186 z M488.418,533.675 C489.043,537.559 496.014,538.647 493.544,543.138 C490.967,543.615 485.248,542.692 485.001,540.29 C488.742,538.462 490.328,538.95 488.418,533.675 L488.418,533.675 z M730.981,533.763 C733.712,535.647 734.323,543.351 731.638,544.802 C727.831,543.816 726.98,534.379 730.981,533.763 z M592.412,533.85 C596.761,533.787 595.77,542.958 591.842,538.625 C589.593,537.144 588.877,534.064 592.412,533.85 z M675.253,534.026 C679.984,536.234 677.439,543.956 673.281,544.496 C668.941,542.07 670.868,535.058 675.253,534.026 z M629.43,535.209 C634.612,535.122 635.691,539.877 632.803,543.532 C628.298,545.779 623.552,536.959 629.43,535.209 z M257.369,535.34 C261.765,536.702 254.259,540.035 257.369,535.34 z M555.966,535.34 C559.53,536.29 553.205,537.022 555.966,535.34 z M546.416,537.794 C550.062,538.373 543.877,542.61 545.058,538.189 C545.433,537.871 545.944,537.835 546.416,537.794 z M333.857,539.195 C340.302,540.643 336.215,551.677 330.221,546.906 C328.173,543.931 329.979,539.322 333.857,539.195 z M574.105,544.802 C577.675,544.594 577.505,551.324 573.886,548.22 C572.918,547.427 572.22,544.86 574.105,544.802 z M297.811,544.934 C301.74,545.999 298.155,549.472 296.234,546.599 C295.653,545.594 296.968,544.929 297.811,544.934 z M777.42,545.066 C781.34,546.779 776.148,548.093 777.42,545.066 z M562.013,546.205 C564.972,546.497 561.224,552.74 559.867,548.614 C558.362,546.925 560.575,546.031 562.013,546.205 z M615.722,546.774 C616.383,547.226 615.063,547.24 615.722,546.774 z M754.42,549.271 C760.432,551.366 748.737,552.284 754.288,549.271 L754.42,549.271 z M475.758,549.71 C481.041,550.255 473.251,557.078 473.392,551.769 C473.469,550.507 474.436,549.623 475.758,549.71 z M492.054,550.411 C495.568,551.543 498.517,554.901 502.656,553.74 C507.491,555.099 508.056,560.425 503.839,563.071 C502.014,563.912 496.147,565.814 496.217,563.422 C498.344,557.534 489.86,559.929 488.287,558.033 C488.659,555.45 488.856,551.087 492.054,550.411 L492.054,550.411 z M433.789,551.593 C437.68,552.374 440.113,558.426 436.417,559.741 C435.337,557.468 433.067,553.097 433.789,551.593 z M701.847,551.68 C709.718,551.65 711.008,568.067 701.847,565.349 C695.427,564.524 692.658,555.003 699.219,552.294 C700.049,551.856 700.892,551.724 701.847,551.68 L701.847,551.68 z M459.852,551.987 C463.794,552.05 459.036,556.666 459.371,553.171 C459.511,552.844 459.258,551.9 459.852,551.987 z M601.882,553.301 C605.98,553.231 607.213,559.227 611.52,557.989 C613.117,561.676 608.177,556.313 606.57,559.041 C603.946,562.639 596.165,560.871 596.274,556.588 C597.546,554.719 599.593,553.339 601.882,553.301 L601.882,553.301 z M644.551,553.828 C651.022,553.431 647.588,566.433 642.842,561.406 C639.194,558.761 639.612,554.131 644.551,553.828 z M619.317,554.616 C621.868,554.458 620.827,561.466 618.66,557.201 C617.82,556.179 617.251,554.404 619.317,554.616 z M630.532,554.835 C634.394,557.273 633.637,564.983 629.261,558.909 C627.156,557.633 629.545,555.847 630.532,554.835 z M450.699,554.835 C455.738,555.947 461.529,561.805 466.732,558.033 C467.538,561.272 471.702,557.675 472.253,561.45 C474.319,563.994 479.982,561.338 478.386,565.743 C478.687,568.069 483.708,570.943 479.831,572.577 C475.644,570.692 466.921,576.781 473.26,579.806 C481.11,581.898 488.611,572.31 495.865,578.799 C499.632,580.487 500.965,583.406 501.823,586.86 C504.781,588.947 507.551,594.432 503.4,596.147 C499.094,593.02 496.45,599.331 497.004,602.849 C493.359,598.759 489.411,609.738 494.2,610.911 C496.193,613.295 495.576,621.39 491.966,618.139 C487.609,614.146 481.709,612.028 477.158,607.976 C473.728,607.94 476.88,604.753 473.653,603.114 C471.741,599.828 467.501,600.265 465.812,601.712 C469.526,600.849 471.801,592.801 466.075,593.301 C462.951,593.363 463.183,587.105 460.248,585.678 C457.441,583.272 454.757,578.438 456.612,575.296 C463.835,576.641 461.331,560.232 454.772,565.614 C454.482,570.144 449.271,568.384 446.01,568.724 C448.885,564.756 448.45,559.463 448.989,555.319 C449.482,554.982 450.113,554.859 450.699,554.835 L450.699,554.835 z M719.239,557.989 C720.426,560.316 715.007,560.56 718.626,558.296 C718.801,558.173 719.019,557.996 719.239,557.989 z M189.552,558.822 C191.726,560.071 188.601,563.578 188.851,559.917 C188.944,559.515 189.095,558.948 189.552,558.822 z M758.007,559.566 C757.096,560.482 756.635,559.854 758.007,559.566 z M485.825,563.378 C488.705,563.612 486.196,565.52 485.212,563.641 C485.338,563.51 485.614,563.431 485.825,563.378 z M625.488,563.903 C628.823,564.435 626.105,569.703 625.093,565.568 C625.054,565.038 624.974,564.193 625.488,563.903 z M550.532,567.233 C554.967,568.283 551.497,571.707 548.386,569.686 C547.703,568.822 549.523,567.165 550.532,567.233 z M637.75,567.715 C640.289,569.864 645.026,572.533 645.68,575.601 C641.704,576.038 637.698,570.305 637.75,567.715 z M612.999,569.248 C615.398,571.375 611.926,574.794 611.071,571.176 C611.111,570.215 612.04,569.222 612.999,569.248 z M310.589,571.526 C312.725,574.88 303.716,573.125 308.705,572.051 C309.324,571.8 309.918,571.59 310.589,571.526 z M699.253,571.701 C702.951,572.196 700.217,578.805 698.596,580.507 C695.291,582.878 687.111,578.528 692.682,575.031 C694.612,573.525 696.758,571.969 699.253,571.701 L699.253,571.701 z M747.573,572.27 C753.917,570.803 753.302,579.406 751.078,582.697 C748.044,587.652 758.967,589.318 759.445,589.18 C756.603,594 765.151,598.435 761.242,603.461 C758.469,608.062 762.298,611.918 763.038,616.297 C763.263,618.74 770.601,621.551 767.55,623.175 C762.947,624.404 763.055,616.717 758.92,615.377 C755.64,611.502 749.391,614.287 751.473,619.189 C750.074,616.467 744.676,612.437 742.667,617.173 C740.564,619.345 740.745,613.104 738.505,612.443 C736.618,608.725 732.193,609.383 732.504,613.319 C727.534,615.324 724.091,610.4 726.37,606.265 C731.04,605.852 734.052,601.897 732.591,597.154 C732.96,593.361 732.423,588.367 736.884,587.999 C739.624,584.548 749.689,585.437 745.778,578.887 C742.647,577.404 743.837,571.713 747.573,572.27 L747.573,572.27 z M592.84,572.49 C599.405,571.572 603.768,577.726 602.39,583.88 C602.337,586.833 602.761,596.321 597.352,593.211 C596.966,590.688 598.663,585.908 593.979,587.429 C588.744,584.614 589.433,576.591 592.27,572.533 L592.621,572.49 L592.84,572.49 z M296.523,573.015 C303.402,572.379 302.123,581.642 296.611,582.478 C291.628,581.15 290.742,573.366 296.523,573.015 z M256.001,573.234 C259.227,574.627 258.73,576.672 254.949,575.424 C252.777,575.293 255.277,573.502 256.001,573.234 z M501.112,573.804 C502.686,576.763 499.451,575.72 501.112,573.804 z M613.834,577.44 C617.488,579.264 612.052,581.314 612.694,578.097 C612.888,577.682 613.387,577.32 613.834,577.44 z M666.448,578.711 C669.731,577.425 673.193,582.484 670.04,584.1 C667.021,585.33 662.272,579.723 666.448,578.711 z M449.155,579.368 C453.358,579.049 453.171,586.543 451.477,588.348 C447.527,587.684 449.135,596.038 446.833,591.941 C443.179,590.73 436.534,587.328 441.444,583.003 C443.603,580.995 446.278,579.882 449.155,579.368 L449.155,579.368 z M568.092,580.463 C568.18,584.874 564.328,581.18 568.092,580.463 z M561.521,580.857 C562.598,584.878 560.718,589.889 555.87,587.91 C552.802,585.194 556.703,581.557 560.032,582.172 C560.691,582.016 561.162,581.193 561.521,580.857 L561.521,580.857 z M636.213,581.689 C645.76,580.991 651.203,595.681 642.084,600.22 C632.033,604.688 622.679,587.422 632.84,582.39 C633.914,581.929 635.02,581.741 636.213,581.689 L636.213,581.689 z M339.94,582.829 C343.488,587.458 341.092,595.355 335.559,596.497 C330.029,594.077 336.068,584.375 339.94,582.829 z M732.245,584.055 C733.49,587.624 728.26,583.894 732.245,584.055 z M361.889,584.713 C363.856,586.019 360.266,587.344 361.889,584.713 z M432.902,587.823 C437.279,588.245 433.752,593.571 431.675,589.75 C431.324,588.772 431.818,587.869 432.902,587.823 z M516.094,589.663 C520.276,587.991 524.375,592.704 520.738,595.84 C517.33,598.481 514.222,592.68 511.363,591.985 C510.181,588.784 514.439,590.029 516.094,589.663 L516.094,589.663 z M676.345,590.144 C679.647,590.038 679.997,595.438 676.345,593.473 C675.179,592.789 675.313,590.621 676.345,590.144 z M700.352,592.51 C705.349,592.136 701.324,600.801 699.432,595.314 C699.036,594.185 698.674,592.55 700.352,592.51 z M446.702,597.417 C452.067,597.229 453.357,601.938 451.477,606.135 C452.37,609.798 443.953,612.712 448.936,614.852 C452.59,613.596 456.91,617.988 452.528,619.934 C448.813,621.185 446.22,614.368 443.767,612.268 C444.103,607.574 444.579,601.82 443.81,596.803 C444.774,597.007 445.738,597.212 446.702,597.417 L446.702,597.417 z M544.172,597.285 C549.532,598.017 546.037,605.065 542.375,601.491 C541.609,600.043 542.326,597.405 544.172,597.285 z M596.04,598.074 C600.482,600.201 592.774,603.369 595.296,598.425 C595.533,598.243 595.761,598.125 596.04,598.074 z M436.4,600.922 C436.054,601.084 436.054,600.758 436.4,600.922 z M523.136,601.447 C525.113,602.63 522.645,602.449 523.136,601.447 z M427.155,604.207 C426.903,606.287 425.01,604.438 427.155,604.207 z M322.018,604.076 C321.865,606.072 316.91,604.044 316.98,607.536 C317.246,609.302 315.181,612.247 315.796,608.982 C316.683,605.496 318.641,604.668 322.018,604.076 L322.018,604.076 z M496.376,604.119 L496.42,604.295 L496.376,604.119 z M688.698,607.58 C689.86,608.05 687.379,608.147 688.698,607.58 z M479.558,619.758 C481.683,620.911 478.237,622.384 479.558,619.758 z M460.238,620.548 C459.892,620.71 459.892,620.384 460.238,620.548 z" fill="#F0DC4F" id="path9555"/>
  </g>
</svg>
