<?xml version="1.0" encoding="UTF-8"?>
<!DOCTYPE svg PUBLIC "-//W3C//DTD SVG 1.1//EN" "http://www.w3.org/Graphics/SVG/1.1/DTD/svg11.dtd">
<svg version="1.1" xmlns="http://www.w3.org/2000/svg" xmlns:xlink="http://www.w3.org/1999/xlink" x="0" y="0" width="237" height="261" viewBox="0, 0, 237, 261">
  <g id="Background">
    <rect x="0" y="0" width="237" height="261" fill="#000000" fill-opacity="0"/>
  </g>
  <g id="Layer_1">
    <g>
      <path d="M224.153,197.287 L123.251,254.428 L123.251,209.99 L186.14,175.358 L224.153,197.287 z M231.06,191.056 L231.06,71.654 L194.158,92.955 L194.158,169.755 L231.06,191.056 z M13.46,197.287 L114.363,254.38 L114.363,209.942 L51.474,175.358 L13.46,197.287 L13.46,197.287 z M6.553,191.056 L6.553,71.654 L43.456,92.955 L43.456,169.755 L6.553,191.056 L6.553,191.056 z M10.852,63.925 L114.363,5.383 L114.363,48.372 L48.045,84.84 L47.513,85.13 L10.852,63.925 L10.852,63.925 z M226.713,63.925 L123.251,5.383 L123.251,48.372 L189.521,84.888 L190.052,85.178 L226.713,63.925 L226.713,63.925 z" fill="#325F74"/>
      <path d="M114.363,199.847 L52.343,165.697 L52.343,98.123 L114.363,133.915 L114.363,199.847 L114.363,199.847 z M123.251,199.847 L185.27,165.746 L185.27,98.123 L123.251,133.915 L123.251,199.847 z M56.497,90.298 L118.807,56.052 L181.068,90.298 L118.807,126.235 L56.497,90.298 L56.497,90.298 z" fill="#325F74"/>
    </g>
  </g>
</svg>
